<svg width="22" height="16" viewBox="0 0 22 16" fill="none" xmlns="http://www.w3.org/2000/svg">
<path d="M1 8.05225L6.625 8.05225M6.4 1.05225L3 1.05225C2.05719 1.05225 1.58579 1.05225 1.29289 1.34514C1 1.63803 1 2.10944 1 3.05225L1 13.0522C1 13.9951 1 14.4665 1.29289 14.7594C1.58579 15.0522 2.05719 15.0522 3 15.0522L6.4 15.0522C8.38823 15.0522 10 13.4852 10 11.5522C10 9.61925 8.38823 8.05225 6.4 8.05225C8.38823 8.05225 10 6.48524 10 4.55225C10 2.61925 8.38823 1.05225 6.4 1.05225Z" stroke="#637381" stroke-width="1.5" stroke-linecap="round" stroke-linejoin="round"/>
<path d="M19 3.05225L15 3.05225M13 10.0522L21 10.0522C21 8.01094 19.2091 6.05225 17 6.05225C14.7909 6.05225 13 8.01094 13 10.0522ZM13 10.0522V11.0522C13 13.2614 14.7909 15.0522 17 15.0522C18.4806 15.0522 19.7733 14.2478 20.4649 13.0522" stroke="#637381" stroke-width="1.5" stroke-linecap="round" stroke-linejoin="round"/>
</svg>
