<svg width="22" height="22" viewBox="0 0 22 22" fill="none" xmlns="http://www.w3.org/2000/svg">
<path d="M1.5 11.0522C1.5 6.5739 1.5 4.33473 2.89124 2.94349C4.28249 1.55225 6.52166 1.55225 11 1.55225C15.4783 1.55225 17.7175 1.55225 19.1088 2.94349C20.5 4.33473 20.5 6.5739 20.5 11.0522C20.5 15.5306 20.5 17.7698 19.1088 19.161C17.7175 20.5522 15.4783 20.5522 11 20.5522C6.52166 20.5522 4.28249 20.5522 2.89124 19.161C1.5 17.7698 1.5 15.5306 1.5 11.0522Z" stroke="#637381" stroke-width="1.5" stroke-linejoin="round"/>
<path d="M16 7.80225C16.4142 7.80225 16.75 7.46646 16.75 7.05225C16.75 6.63803 16.4142 6.30225 16 6.30225V7.80225ZM15 7.05225V7.80225V7.05225ZM10.25 20.5522C10.25 20.9665 10.5858 21.3022 11 21.3022C11.4142 21.3022 11.75 20.9665 11.75 20.5522H10.25ZM9 12.3022C8.58579 12.3022 8.25 12.638 8.25 13.0522C8.25 13.4665 8.58579 13.8022 9 13.8022V12.3022ZM14 13.8022C14.4142 13.8022 14.75 13.4665 14.75 13.0522C14.75 12.638 14.4142 12.3022 14 12.3022L14 13.8022ZM16 7.05225V6.30225H15V7.05225V7.80225H16V7.05225ZM11 11.0522H10.25L10.25 20.5522H11H11.75L11.75 11.0522H11ZM15 7.05225V6.30225C14.0784 6.30225 13.3117 6.30065 12.7055 6.38216C12.0777 6.46656 11.5109 6.65223 11.0555 7.1077L11.5858 7.63803L12.1161 8.16836C12.2464 8.03805 12.4439 7.93082 12.9054 7.86878C13.3884 7.80384 14.036 7.80225 15 7.80225V7.05225ZM11 11.0522H11.75C11.75 10.0882 11.7516 9.44067 11.8165 8.95764C11.8786 8.49618 11.9858 8.29868 12.1161 8.16836L11.5858 7.63803L11.0555 7.1077C10.6 7.56317 10.4143 8.12997 10.3299 8.75777C10.2484 9.36399 10.25 10.1306 10.25 11.0522H11ZM9 13.0522V13.8022H14V13.0522L14 12.3022H9V13.0522Z" fill="#637381"/>
</svg>
