<svg width="160" height="49" viewBox="0 0 160 49" fill="none" xmlns="http://www.w3.org/2000/svg">
<path d="M154.074 48.0522H5.92593C2.60741 48.0522 0 45.4122 0 42.0522V6.05225C0 2.69225 2.60741 0.0522461 5.92593 0.0522461H154.074C157.393 0.0522461 160 2.69225 160 6.05225V42.0522C160 45.4122 157.393 48.0522 154.074 48.0522Z" fill="black"/>
<path d="M154.074 1.01225C156.8 1.01225 159.052 3.29225 159.052 6.05225V42.0522C159.052 44.8122 156.8 47.0922 154.074 47.0922H5.92593C3.2 47.0922 0.948148 44.8122 0.948148 42.0522V6.05225C0.948148 3.29225 3.2 1.01225 5.92593 1.01225H154.074ZM154.074 0.0522461H5.92593C2.60741 0.0522461 0 2.81225 0 6.05225V42.0522C0 45.4122 2.60741 48.0522 5.92593 48.0522H154.074C157.393 48.0522 160 45.4122 160 42.0522V6.05225C160 2.81225 157.393 0.0522461 154.074 0.0522461Z" fill="#A6A6A6"/>
<path d="M56.1778 12.2923C56.1778 13.2523 55.9407 14.0923 55.3481 14.6923C54.637 15.4123 53.8074 15.7723 52.7407 15.7723C51.6741 15.7723 50.8444 15.4123 50.1333 14.6923C49.4222 13.9723 49.0667 13.1323 49.0667 12.0523C49.0667 10.9723 49.4222 10.1323 50.1333 9.41228C50.8444 8.69228 51.6741 8.33228 52.7407 8.33228C53.2148 8.33228 53.6889 8.45228 54.1629 8.69228C54.637 8.93228 54.9926 9.17228 55.2296 9.53228L54.637 10.1323C54.1629 9.53227 53.5704 9.29228 52.7407 9.29228C52.0296 9.29228 51.3185 9.53227 50.8444 10.1323C50.2518 10.6123 50.0148 11.3323 50.0148 12.1723C50.0148 13.0123 50.2518 13.7323 50.8444 14.2123C51.437 14.6923 52.0296 15.0523 52.7407 15.0523C53.5704 15.0523 54.1629 14.8123 54.7555 14.2123C55.1111 13.8523 55.3481 13.3723 55.3481 12.7723H52.7407V11.8123H56.1778V12.2923ZM61.6296 9.29228H58.4296V11.5723H61.3926V12.4123H58.4296V14.6923H61.6296V15.6523H57.4815V8.45228H61.6296V9.29228ZM65.5407 15.6523H64.5926V9.29228H62.5778V8.45228H67.5555V9.29228H65.5407V15.6523ZM70.9926 15.6523V8.45228H71.9407V15.6523H70.9926ZM75.9704 15.6523H75.0222V9.29228H73.0074V8.45228H77.8666V9.29228H75.8518V15.6523H75.9704ZM87.2296 14.6923C86.5185 15.4123 85.6889 15.7723 84.6222 15.7723C83.5555 15.7723 82.7259 15.4123 82.0148 14.6923C81.3037 13.9723 80.9481 13.1323 80.9481 12.0523C80.9481 10.9723 81.3037 10.1323 82.0148 9.41228C82.7259 8.69228 83.5555 8.33228 84.6222 8.33228C85.6889 8.33228 86.5185 8.69228 87.2296 9.41228C87.9407 10.1323 88.2963 10.9723 88.2963 12.0523C88.2963 13.1323 87.9407 13.9723 87.2296 14.6923ZM82.7259 14.0923C83.2 14.5723 83.9111 14.9323 84.6222 14.9323C85.3333 14.9323 86.0444 14.6923 86.5185 14.0923C86.9926 13.6123 87.3481 12.8923 87.3481 12.0523C87.3481 11.2123 87.1111 10.4923 86.5185 10.0123C86.0444 9.53228 85.3333 9.17228 84.6222 9.17228C83.9111 9.17228 83.2 9.41228 82.7259 10.0123C82.2518 10.4923 81.8963 11.2123 81.8963 12.0523C81.8963 12.8923 82.1333 13.6123 82.7259 14.0923ZM89.6 15.6523V8.45228H90.6666L94.1037 14.0923V8.45228H95.0518V15.6523H94.1037L90.4296 9.77228V15.6523H89.6Z" fill="white" stroke="white" stroke-width="1.18519" stroke-miterlimit="10"/>
<path d="M80.7112 26.2123C77.8667 26.2123 75.6149 28.3723 75.6149 31.3723C75.6149 34.2523 77.8667 36.5323 80.7112 36.5323C83.5556 36.5323 85.8075 34.3723 85.8075 31.3723C85.8075 28.2523 83.5556 26.2123 80.7112 26.2123ZM80.7112 34.3723C79.1704 34.3723 77.8667 33.0523 77.8667 31.2523C77.8667 29.4523 79.1704 28.1323 80.7112 28.1323C82.2519 28.1323 83.5556 29.3323 83.5556 31.2523C83.5556 33.0523 82.2519 34.3723 80.7112 34.3723ZM69.689 26.2123C66.8445 26.2123 64.5927 28.3723 64.5927 31.3723C64.5927 34.2523 66.8445 36.5323 69.689 36.5323C72.5334 36.5323 74.7853 34.3723 74.7853 31.3723C74.7853 28.2523 72.5334 26.2123 69.689 26.2123ZM69.689 34.3723C68.1482 34.3723 66.8445 33.0523 66.8445 31.2523C66.8445 29.4523 68.1482 28.1323 69.689 28.1323C71.2297 28.1323 72.5334 29.3323 72.5334 31.2523C72.5334 33.0523 71.2297 34.3723 69.689 34.3723ZM56.5334 27.7723V29.9323H61.6297C61.5112 31.1323 61.0371 32.0923 60.4445 32.6923C59.7334 33.4123 58.5482 34.2523 56.5334 34.2523C53.3334 34.2523 50.963 31.7323 50.963 28.4923C50.963 25.2523 53.4519 22.7323 56.5334 22.7323C58.1927 22.7323 59.4964 23.4523 60.4445 24.2923L61.9853 22.7323C60.6816 21.5323 59.0223 20.5723 56.6519 20.5723C52.3853 20.5723 48.7112 24.1723 48.7112 28.4923C48.7112 32.8123 52.3853 36.4123 56.6519 36.4123C59.0223 36.4123 60.6816 35.6923 62.1038 34.1323C63.526 32.6923 64.0001 30.6523 64.0001 29.0923C64.0001 28.6123 64.0001 28.1323 63.8816 27.7723H56.5334ZM110.341 29.4523C109.867 28.2523 108.682 26.2123 106.074 26.2123C103.467 26.2123 101.333 28.2523 101.333 31.3723C101.333 34.2523 103.467 36.5323 106.311 36.5323C108.563 36.5323 109.985 35.0923 110.459 34.2523L108.8 33.0523C108.207 33.8923 107.496 34.4923 106.311 34.4923C105.126 34.4923 104.415 34.0123 103.822 32.9323L110.578 30.0523L110.341 29.4523ZM103.467 31.1323C103.467 29.2123 105.007 28.1323 106.074 28.1323C106.904 28.1323 107.733 28.6123 107.97 29.2123L103.467 31.1323ZM97.8964 36.0523H100.148V21.0523H97.8964V36.0523ZM94.3408 27.2923C93.7482 26.6923 92.8001 26.0923 91.6149 26.0923C89.126 26.0923 86.7556 28.3723 86.7556 31.2523C86.7556 34.1323 89.0075 36.2923 91.6149 36.2923C92.8001 36.2923 93.7482 35.6923 94.2223 35.0923H94.3408V35.8123C94.3408 37.7323 93.2742 38.8123 91.6149 38.8123C90.3112 38.8123 89.363 37.8523 89.126 37.0123L87.2297 37.8523C87.8223 39.1723 89.2445 40.8523 91.7334 40.8523C94.3408 40.8523 96.4741 39.2923 96.4741 35.5723V26.4523H94.3408V27.2923ZM91.7334 34.3723C90.1927 34.3723 88.889 33.0523 88.889 31.2523C88.889 29.4523 90.1927 28.1323 91.7334 28.1323C93.2741 28.1323 94.4593 29.4523 94.4593 31.2523C94.4593 33.0523 93.2741 34.3723 91.7334 34.3723ZM120.652 21.0523H115.319V36.0523H117.57V30.4123H120.652C123.141 30.4123 125.511 28.6123 125.511 25.7323C125.511 22.8523 123.141 21.0523 120.652 21.0523ZM120.77 28.2523H117.57V23.0923H120.77C122.43 23.0923 123.378 24.5323 123.378 25.6123C123.259 26.9323 122.311 28.2523 120.77 28.2523ZM134.4 26.0923C132.741 26.0923 131.082 26.8123 130.489 28.3723L132.504 29.2123C132.978 28.3723 133.689 28.1323 134.519 28.1323C135.704 28.1323 136.77 28.8523 136.889 30.0523V30.1723C136.533 29.9323 135.585 29.5723 134.637 29.5723C132.504 29.5723 130.37 30.7723 130.37 32.9323C130.37 34.9723 132.148 36.2923 134.045 36.2923C135.585 36.2923 136.296 35.5723 136.889 34.8523H137.007V36.0523H139.141V30.2923C138.904 27.6523 136.889 26.0923 134.4 26.0923ZM134.163 34.3723C133.452 34.3723 132.385 34.0123 132.385 33.0523C132.385 31.8523 133.689 31.4923 134.756 31.4923C135.704 31.4923 136.178 31.7323 136.77 31.9723C136.533 33.4123 135.348 34.3723 134.163 34.3723ZM146.607 26.4523L144.119 32.9323H144L141.393 26.4523H139.022L142.933 35.5723L140.682 40.6123H142.933L148.978 26.4523H146.607ZM126.696 36.0523H128.948V21.0523H126.696V36.0523Z" fill="white"/>
<path d="M12.3259 9.05225C11.9703 9.41225 11.8518 10.0122 11.8518 10.7322V37.2522C11.8518 37.9722 12.0888 38.5722 12.4444 38.9322L12.5629 39.0522L27.2592 24.1722V23.9322L12.3259 9.05225Z" fill="url(#paint0_linear_24015_11522)"/>
<path d="M31.9999 29.2122L27.1406 24.2922V23.9322L31.9999 19.0122L32.1184 19.1322L37.9258 22.4922C39.5851 23.4522 39.5851 25.0122 37.9258 25.9722L31.9999 29.2122Z" fill="url(#paint1_linear_24015_11522)"/>
<path d="M32.1185 29.0922L27.1407 24.0522L12.3259 39.0522C12.9185 39.6522 13.7482 39.6522 14.8148 39.1722L32.1185 29.0922Z" fill="url(#paint2_linear_24015_11522)"/>
<path d="M32.1185 19.0122L14.8148 9.05219C13.7482 8.45219 12.9185 8.57219 12.3259 9.17219L27.1407 24.0522L32.1185 19.0122Z" fill="url(#paint3_linear_24015_11522)"/>
<path opacity="0.2" d="M32 28.9722L14.8148 38.8122C13.8667 39.4122 13.037 39.2922 12.4444 38.8122L12.3259 38.9322L12.4444 39.0522C13.037 39.5322 13.8667 39.6522 14.8148 39.0522L32 28.9722Z" fill="black"/>
<path opacity="0.12" d="M12.3259 38.8122C11.9703 38.4522 11.8518 37.8522 11.8518 37.1322V37.2522C11.8518 37.9722 12.0888 38.5722 12.4444 38.9322V38.8122H12.3259ZM37.9259 25.6122L32 28.9722L32.1185 29.0922L37.9259 25.7322C38.7555 25.2522 39.1111 24.6522 39.1111 24.0522C39.1111 24.6522 38.637 25.1322 37.9259 25.6122Z" fill="black"/>
<path opacity="0.25" d="M14.8148 9.17228L37.9259 22.4923C38.637 22.9723 39.1111 23.4523 39.1111 24.0523C39.1111 23.4523 38.7555 22.8523 37.9259 22.3723L14.8148 9.05228C13.1555 8.09228 11.8518 8.81228 11.8518 10.7323V10.8523C11.8518 9.05228 13.1555 8.21228 14.8148 9.17228Z" fill="white"/>
<defs>
<linearGradient id="paint0_linear_24015_11522" x1="25.837" y1="10.5042" x2="5.69896" y2="30.3925" gradientUnits="userSpaceOnUse">
<stop stop-color="#00A0FF"/>
<stop offset="0.007" stop-color="#00A1FF"/>
<stop offset="0.26" stop-color="#00BEFF"/>
<stop offset="0.512" stop-color="#00D2FF"/>
<stop offset="0.76" stop-color="#00DFFF"/>
<stop offset="1" stop-color="#00E3FF"/>
</linearGradient>
<linearGradient id="paint1_linear_24015_11522" x1="40.0994" y1="24.0534" x2="11.4215" y2="24.0534" gradientUnits="userSpaceOnUse">
<stop stop-color="#FFE000"/>
<stop offset="0.409" stop-color="#FFBD00"/>
<stop offset="0.775" stop-color="#FFA500"/>
<stop offset="1" stop-color="#FF9C00"/>
</linearGradient>
<linearGradient id="paint2_linear_24015_11522" x1="29.4246" y1="26.8074" x2="2.1171" y2="53.7778" gradientUnits="userSpaceOnUse">
<stop stop-color="#FF3A44"/>
<stop offset="1" stop-color="#C31162"/>
</linearGradient>
<linearGradient id="paint3_linear_24015_11522" x1="8.6483" y1="0.263385" x2="20.843" y2="12.3075" gradientUnits="userSpaceOnUse">
<stop stop-color="#32A071"/>
<stop offset="0.069" stop-color="#2DA771"/>
<stop offset="0.476" stop-color="#15CF74"/>
<stop offset="0.801" stop-color="#06E775"/>
<stop offset="1" stop-color="#00F076"/>
</linearGradient>
</defs>
</svg>
