<svg width="16" height="16" viewBox="0 0 16 16" fill="none" xmlns="http://www.w3.org/2000/svg">
<path d="M12.0024 1.33472V2.66805M4.00244 1.33472V2.66805" stroke="#637381" stroke-linecap="round" stroke-linejoin="round"/>
<path d="M7.99961 8.66797H8.00559M7.99961 11.3346H8.00559M10.6633 8.66797H10.6693M5.33594 8.66797H5.34192M5.33594 11.3346H5.34192" stroke="#637381" stroke-width="1.33333" stroke-linecap="round" stroke-linejoin="round"/>
<path d="M2.33594 5.33472H13.6693" stroke="#637381" stroke-linecap="round" stroke-linejoin="round"/>
<path d="M1.66919 8.16363C1.66919 5.25876 1.66919 3.80632 2.50394 2.90389C3.33868 2.00146 4.68218 2.00146 7.36919 2.00146H8.63586C11.3229 2.00146 12.6664 2.00146 13.5011 2.90389C14.3359 3.80632 14.3359 5.25876 14.3359 8.16363V8.50597C14.3359 11.4108 14.3359 12.8633 13.5011 13.7657C12.6664 14.6681 11.3229 14.6681 8.63586 14.6681H7.36919C4.68218 14.6681 3.33868 14.6681 2.50394 13.7657C1.66919 12.8633 1.66919 11.4108 1.66919 8.50597V8.16363Z" stroke="#637381" stroke-linecap="round" stroke-linejoin="round"/>
<path d="M2.00244 5.33472H14.0024" stroke="#637381" stroke-linecap="round" stroke-linejoin="round"/>
</svg>
