<svg width="18" height="18" viewBox="0 0 18 18" fill="none" xmlns="http://www.w3.org/2000/svg">
<path d="M16.5 9C16.5 13.1421 13.1421 16.5 9 16.5C4.85786 16.5 1.5 13.1421 1.5 9C1.5 4.85786 4.85786 1.5 9 1.5C13.1421 1.5 16.5 4.85786 16.5 9Z" stroke="white" stroke-width="1.5"/>
<path d="M10.3125 7.59584C10.3125 8.01006 10.6483 8.34584 11.0625 8.34584C11.4767 8.34584 11.8125 8.01006 11.8125 7.59584H10.3125ZM7.5 10.4045C7.5 9.99027 7.16421 9.65448 6.75 9.65448C6.33579 9.65448 6 9.99027 6 10.4045H7.5ZM9.75 5.25C9.75 4.83579 9.41421 4.5 9 4.5C8.58579 4.5 8.25 4.83579 8.25 5.25L9.75 5.25ZM8.25 12.75C8.25 13.1642 8.58579 13.5 9 13.5C9.41421 13.5 9.75 13.1642 9.75 12.75H8.25ZM9 8.89214V8.14214C8.29782 8.14214 7.96493 8.02867 7.82348 7.93398C7.74626 7.88228 7.6875 7.81974 7.6875 7.59584H6.9375H6.1875C6.1875 8.20719 6.40999 8.7928 6.98902 9.18044C7.50382 9.52508 8.20218 9.64214 9 9.64214V8.89214ZM6.9375 7.59584H7.6875C7.6875 7.47458 7.75296 7.30148 7.98509 7.13128C8.21676 6.9614 8.57314 6.8335 9 6.8335V6.0835V5.3335C8.28777 5.3335 7.6129 5.54414 7.0981 5.92163C6.58374 6.29878 6.1875 6.88186 6.1875 7.59584H6.9375ZM9 6.0835V6.8335C9.42686 6.8335 9.78324 6.9614 10.0149 7.13128C10.247 7.30148 10.3125 7.47458 10.3125 7.59584H11.0625H11.8125C11.8125 6.88186 11.4163 6.29878 10.9019 5.92163C10.3871 5.54414 9.71223 5.3335 9 5.3335V6.0835ZM11.25 10.4045H10.5C10.5 10.6602 10.4051 10.8033 10.2066 10.9218C9.96255 11.0674 9.55372 11.1668 9 11.1668V11.9168V12.6668C9.68892 12.6668 10.4051 12.5502 10.9754 12.2097C11.5913 11.8421 12 11.229 12 10.4045H11.25ZM9 11.9168V11.1668C8.50734 11.1668 8.09498 11.0313 7.8274 10.8514C7.55512 10.6684 7.5 10.4962 7.5 10.4045H6.75H6C6 11.148 6.44856 11.732 6.99062 12.0963C7.53738 12.4638 8.25002 12.6668 9 12.6668V11.9168ZM9 8.89214V9.64214C9.70817 9.64214 10.0904 9.75 10.2796 9.87258C10.4005 9.95097 10.5 10.0659 10.5 10.4045H11.25H12C12 9.66285 11.7245 9.02158 11.0954 8.61385C10.5346 8.25033 9.79182 8.14214 9 8.14214V8.89214ZM9 6.0835L9.75 6.0835L9.75 5.25L9 5.25L8.25 5.25L8.25 6.0835L9 6.0835ZM9 11.9168H8.25V12.75H9H9.75V11.9168H9Z" fill="white"/>
</svg>
