<svg width="205" height="72" viewBox="0 0 205 72" fill="none" xmlns="http://www.w3.org/2000/svg">
<path d="M12.2932 34.6441C19.5763 30.1195 23.0392 34.4556 26.0761 40.1588C23.5631 44.6788 21.9005 47.4371 21.0883 48.4338C19.5567 50.314 17.8858 51.7375 15.8309 52.5589C11.5108 54.5645 6.14038 54.6583 1.99316 52.1786L12.2932 34.6441Z" fill="url(#paint0_linear_20342_5545)"/>
<path fill-rule="evenodd" clip-rule="evenodd" d="M63.2526 32.3052C56.6655 20.9208 49.8564 10.195 42.0346 25.9288C40.9646 27.9514 40.1847 31.8824 38.4376 31.8824V31.8624C36.6905 31.8624 35.9108 27.9315 34.8408 25.9088C27.0188 10.175 20.2097 20.9008 13.6226 32.2853C13.1269 33.1438 12.6507 33.9632 12.2432 34.6753C27.3388 25.2356 26.0679 53.7534 38.4376 53.98V54C50.8076 53.7734 49.5364 25.2556 64.632 34.695C64.2248 33.9832 63.7486 33.1638 63.2526 32.3052Z" fill="url(#paint1_linear_20342_5545)"/>
<path fill-rule="evenodd" clip-rule="evenodd" d="M64.0626 54C67.8364 54 70.8959 50.9778 70.8959 47.25C70.8959 43.5222 67.8364 40.5 64.0626 40.5C60.2888 40.5 57.2292 43.5222 57.2292 47.25C57.2292 50.9778 60.2888 54 64.0626 54Z" fill="url(#paint2_linear_20342_5545)"/>
<path fill-rule="evenodd" clip-rule="evenodd" d="M83.1566 25.4332C85.162 25.4332 86.6142 24.0896 86.6142 22.2677C86.6142 20.4459 85.162 19.125 83.1566 19.125C81.1974 19.125 79.7222 20.4459 79.7222 22.2677C79.7222 24.0896 81.1974 25.4332 83.1566 25.4332ZM83.1566 52.7839C85.0468 52.7839 86.1993 51.668 86.1993 49.4818V31.4909C86.1993 29.3047 85.0468 28.166 83.1797 28.166C81.2896 28.166 80.1371 29.3047 80.1371 31.4909V49.4818C80.1371 51.6452 81.2896 52.7839 83.1566 52.7839ZM114.113 49.5046C114.113 51.6225 113.03 52.7839 111.093 52.7839C109.134 52.7839 108.051 51.5997 108.051 49.4818V38.004C108.051 34.8386 106.46 33.0622 103.648 33.0622C100.49 33.0622 98.5081 35.3623 98.5081 39.1199V49.4818C98.5081 51.5997 97.4017 52.7839 95.4654 52.7839C93.5292 52.7839 92.4228 51.5997 92.4228 49.4818V31.377C92.4228 29.3957 93.5753 28.166 95.4193 28.166C97.2403 28.166 98.3006 29.2363 98.3698 31.1721V32.6523H98.6694C99.6145 29.7829 102.357 28.0066 105.953 28.0066C111.163 28.0066 114.113 31.0582 114.113 36.3644V49.5046ZM123.172 25.4332C125.177 25.4332 126.629 24.0896 126.629 22.2677C126.629 20.4459 125.177 19.125 123.172 19.125C121.213 19.125 119.737 20.4459 119.737 22.2677C119.737 24.0896 121.213 25.4332 123.172 25.4332ZM126.214 49.4818C126.214 51.668 125.062 52.7839 123.172 52.7839C121.305 52.7839 120.152 51.6452 120.152 49.4818V31.4909C120.152 29.3047 121.305 28.166 123.195 28.166C125.062 28.166 126.214 29.3047 126.214 31.4909V49.4818ZM164.57 52.7839C166.506 52.7839 167.613 51.6225 167.613 49.4818V35.6812C167.613 30.8988 164.662 28.0066 159.729 28.0066C156.203 28.0066 153.437 29.7601 152.376 32.5612H152.1C151.293 29.7373 148.804 28.0066 145.369 28.0066C142.05 28.0066 139.491 29.6918 138.685 32.4018H138.385V31.2632C138.293 29.3274 137.209 28.166 135.434 28.166C133.59 28.166 132.438 29.3957 132.438 31.3998V49.4818C132.438 51.6225 133.544 52.7839 135.481 52.7839C137.417 52.7839 138.523 51.6225 138.523 49.4818V37.7991C138.523 34.8613 140.252 32.9712 142.834 32.9712C145.461 32.9712 147.098 34.7247 147.098 37.5941V49.4818C147.098 51.6225 148.135 52.7839 150.025 52.7839C151.938 52.7839 152.976 51.6225 152.976 49.4818V37.8219C152.976 34.9069 154.751 32.9712 157.355 32.9712C159.983 32.9712 161.55 34.6108 161.55 37.4803V49.4818C161.55 51.6225 162.634 52.7839 164.57 52.7839ZM186.929 49.4818C185.684 51.6452 183.264 52.875 180.267 52.875C175.496 52.875 172.269 49.9145 172.269 45.5192C172.269 41.0557 175.611 38.3001 181.166 38.3001H186.975V36.3188C186.975 33.8821 185.43 32.6068 182.641 32.6068C180.797 32.6068 179.483 33.29 178.123 34.497C177.432 35.0435 176.787 35.294 175.795 35.294C174.458 35.294 173.629 34.4059 173.629 33.1761C173.629 31.7642 174.62 30.3295 176.763 29.2591C178.308 28.462 180.359 28.0066 183.033 28.0066C189.441 28.0066 193.037 31.0127 193.037 36.3644V49.5729C193.037 51.6225 191.977 52.7839 190.086 52.7839C188.473 52.7839 187.413 51.8957 187.228 50.3244V49.4818H186.929ZM182.296 48.5481C179.921 48.5481 178.308 47.1589 178.308 45.1549C178.308 43.1736 179.783 41.9894 182.272 41.9894H186.975V44.4944C186.975 46.7718 184.923 48.5481 182.296 48.5481ZM205 49.4818C205 51.668 203.824 52.7839 201.957 52.7839C200.067 52.7839 198.915 51.668 198.915 49.4818V22.9737C198.915 20.7874 200.067 19.6488 201.957 19.6488C203.824 19.6488 205 20.7874 205 22.9737V49.4818Z" fill="#212B36"/>
<defs>
<linearGradient id="paint0_linear_20342_5545" x1="21.639" y1="23.5955" x2="9.48804" y2="36.6585" gradientUnits="userSpaceOnUse">
<stop stop-color="#007B55"/>
<stop offset="1" stop-color="#00AB55"/>
</linearGradient>
<linearGradient id="paint1_linear_20342_5545" x1="12.2432" y1="18" x2="12.2432" y2="54" gradientUnits="userSpaceOnUse">
<stop stop-color="#5BE584"/>
<stop offset="1" stop-color="#00AB55"/>
</linearGradient>
<linearGradient id="paint2_linear_20342_5545" x1="57.2292" y1="40.5" x2="57.2292" y2="54" gradientUnits="userSpaceOnUse">
<stop stop-color="#5BE584"/>
<stop offset="1" stop-color="#00AB55"/>
</linearGradient>
</defs>
</svg>
