<svg width="20" height="20" viewBox="0 0 20 20" fill="none" xmlns="http://www.w3.org/2000/svg">
<path d="M7.62038 2.08333C5.40619 2.13396 4.11291 2.34547 3.22927 3.2291C2.34563 4.11274 2.13412 5.40603 2.0835 7.62022M12.3799 2.08333C14.5941 2.13396 15.8874 2.34547 16.7711 3.2291C17.6547 4.11274 17.8662 5.40603 17.9168 7.62022M12.3799 17.9167C14.5941 17.866 15.8874 17.6545 16.7711 16.7709C17.6547 15.8873 17.8662 14.594 17.9168 12.3798M7.62038 17.9167C5.40619 17.866 4.11291 17.6545 3.22927 16.7709C2.34563 15.8873 2.13412 14.594 2.0835 12.3798" stroke="white" stroke-width="1.5" stroke-linecap="round" stroke-linejoin="round"/>
<path d="M6.66659 6.66666H6.67407" stroke="white" stroke-width="2" stroke-linecap="round" stroke-linejoin="round"/>
<path d="M13.3333 13.3333H13.3408" stroke="white" stroke-width="2" stroke-linecap="round" stroke-linejoin="round"/>
<path d="M6.66675 13.3333L13.3334 6.66666" stroke="white" stroke-width="1.5" stroke-linecap="round"/>
</svg>
