<svg width="20" height="18" viewBox="0 0 20 18" fill="none" xmlns="http://www.w3.org/2000/svg">
<path d="M14.1667 8.00371C14.1667 7.7157 14.1667 7.57169 14.2101 7.44331C14.3361 7.07037 14.6682 6.92563 15.001 6.77407C15.3751 6.60368 15.5621 6.51849 15.7474 6.5035C15.9578 6.48649 16.1686 6.53181 16.3484 6.63274C16.5868 6.76654 16.7531 7.02078 16.9233 7.22751C17.7095 8.18237 18.1025 8.6598 18.2464 9.1863C18.3624 9.61117 18.3624 10.0555 18.2464 10.4804C18.0366 11.2483 17.3738 11.892 16.8832 12.4878C16.6323 12.7926 16.5068 12.945 16.3484 13.0339C16.1686 13.1349 15.9578 13.1802 15.7474 13.1632C15.5621 13.1482 15.3751 13.063 15.001 12.8926C14.6682 12.741 14.3361 12.5963 14.2101 12.2234C14.1667 12.095 14.1667 11.951 14.1667 11.663V8.00371Z" stroke="white" stroke-width="1.5"/>
<path d="M5.8335 8.00364C5.8335 7.64094 5.82331 7.31497 5.53009 7.05996C5.42344 6.96721 5.28204 6.90281 4.99925 6.774C4.62517 6.60362 4.43813 6.51842 4.2528 6.50343C3.69676 6.45846 3.3976 6.83797 3.07693 7.22745C2.29079 8.18231 1.89771 8.65974 1.75388 9.18623C1.63781 9.61111 1.63781 10.0554 1.75388 10.4803C1.96367 11.2482 2.62643 11.8919 3.11701 12.4878C3.42624 12.8634 3.72164 13.2061 4.2528 13.1631C4.43813 13.1481 4.62517 13.0629 4.99925 12.8925C5.28204 12.7637 5.42344 12.6993 5.53009 12.6066C5.82331 12.3516 5.8335 12.0256 5.8335 11.6629V8.00364Z" stroke="white" stroke-width="1.5"/>
<path d="M4.16675 6.5C4.16675 3.73858 6.77842 1.5 10.0001 1.5C13.2217 1.5 15.8334 3.73858 15.8334 6.5" stroke="white" stroke-width="1.5" stroke-linecap="square" stroke-linejoin="round"/>
<path d="M15.8335 13.1667V13.8333C15.8335 15.3061 14.3411 16.5 12.5002 16.5H10.8335" stroke="white" stroke-width="1.5" stroke-linecap="round" stroke-linejoin="round"/>
</svg>
