<svg width="48" height="48" viewBox="0 0 48 48" fill="none" xmlns="http://www.w3.org/2000/svg">
<rect width="48" height="48" rx="24" fill="#919EAB" fill-opacity="0.08"/>
<path d="M20.2687 20.4971C21.6095 19.6746 22.7798 20.0061 23.4828 20.534C23.7711 20.7505 23.9152 20.8587 24 20.8587C24.0848 20.8587 24.2289 20.7505 24.5172 20.534C25.2202 20.0061 26.3905 19.6746 27.7313 20.4971C29.491 21.5765 29.8891 25.1374 25.8302 28.1417C25.0571 28.7139 24.6706 29 24 29C23.3294 29 22.9429 28.7139 22.1698 28.1417C18.1109 25.1374 18.509 21.5765 20.2687 20.4971Z" stroke="#212B36" stroke-width="1.5" stroke-linecap="round"/>
<path d="M34 24C34 18.4772 29.5228 14 24 14C18.4772 14 14 18.4772 14 24C14 29.5228 18.4772 34 24 34C29.5228 34 34 29.5228 34 24Z" stroke="#212B36" stroke-width="1.5"/>
</svg>
