<svg width="16" height="16" viewBox="0 0 16 16" fill="none" xmlns="http://www.w3.org/2000/svg">
<path d="M13.3308 6.00138C12.8007 3.34442 10.3393 1.33472 7.38365 1.33472C4.04114 1.33472 1.33081 3.90486 1.33081 7.07475C1.33081 8.59777 1.95627 9.98164 2.97651 11.0086C3.20114 11.2347 3.35111 11.5436 3.29058 11.8616C3.19069 12.3814 2.96431 12.8664 2.63284 13.2705C3.50496 13.4313 4.41179 13.2865 5.18949 12.8766C5.4644 12.7316 5.60186 12.6592 5.69886 12.6445C5.76676 12.6342 5.85521 12.6438 5.99748 12.6682" stroke="#637381" stroke-linecap="round" stroke-linejoin="round"/>
<path d="M7.33081 10.8425C7.33081 12.7797 8.97266 14.3503 10.9975 14.3503C11.2356 14.3506 11.473 14.3286 11.7068 14.2847C11.8752 14.2531 11.9593 14.2373 12.0181 14.2462C12.0768 14.2552 12.1601 14.2995 12.3266 14.3881C12.7978 14.6386 13.3471 14.7271 13.8754 14.6288C13.6746 14.3818 13.5375 14.0855 13.477 13.7678C13.4403 13.5735 13.5311 13.3847 13.6672 13.2465C14.2853 12.6189 14.6641 11.7732 14.6641 10.8425C14.6641 8.90536 13.0223 7.33472 10.9975 7.33472C8.97266 7.33472 7.33081 8.90536 7.33081 10.8425Z" stroke="#637381" stroke-linejoin="round"/>
</svg>
