<svg width="161" height="49" viewBox="0 0 161 49" fill="none" xmlns="http://www.w3.org/2000/svg">
<path d="M159.932 42.3856C159.932 42.9897 159.814 43.5879 159.584 44.146C159.354 44.704 159.017 45.211 158.592 45.638C158.167 46.065 157.663 46.4035 157.108 46.6342C156.553 46.865 155.958 46.9834 155.357 46.9828H5.64285C4.42941 46.9841 3.26515 46.5005 2.40611 45.6384C1.54707 44.7762 1.06359 43.6062 1.06201 42.3856V5.72387C1.06359 4.50267 1.54687 3.332 2.40574 2.46893C3.26461 1.60586 4.42886 1.12092 5.64285 1.12061H155.356C155.957 1.12061 156.552 1.23968 157.107 1.47103C157.662 1.70238 158.167 2.04148 158.591 2.46894C159.016 2.89641 159.353 3.40388 159.583 3.96237C159.813 4.52086 159.931 5.11942 159.931 5.72387L159.932 42.3856Z" fill="white"/>
<path d="M155.357 48.0522H5.64282C4.148 48.0519 2.71436 47.4551 1.65646 46.3927C0.598571 45.3303 0.00284423 43.8892 0 42.3855L0 5.72501C0.00221137 4.22055 0.597545 2.77841 1.6554 1.71494C2.71326 0.651473 4.14726 0.0535159 5.64282 0.0522461L155.356 0.0522461C156.851 0.0541495 158.285 0.65231 159.343 1.71564C160.4 2.77898 160.996 4.22075 160.999 5.72501V42.3855C161.001 45.5111 158.466 48.0522 155.357 48.0522Z" fill="#A6A6A6"/>
<path d="M159.932 42.3856C159.932 42.9897 159.814 43.5879 159.584 44.146C159.354 44.704 159.017 45.211 158.592 45.638C158.167 46.065 157.663 46.4035 157.108 46.6342C156.553 46.865 155.958 46.9834 155.357 46.9828H5.64285C4.42941 46.9841 3.26515 46.5005 2.40611 45.6384C1.54707 44.7762 1.06359 43.6062 1.06201 42.3856V5.72387C1.06359 4.50267 1.54687 3.332 2.40574 2.46893C3.26461 1.60586 4.42886 1.12092 5.64285 1.12061H155.356C155.957 1.12061 156.552 1.23968 157.107 1.47103C157.662 1.70238 158.167 2.04148 158.591 2.46894C159.016 2.89641 159.353 3.40388 159.583 3.96237C159.813 4.52086 159.931 5.11942 159.931 5.72387L159.932 42.3856Z" fill="black"/>
<path d="M35.9498 23.7995C35.9152 19.9309 39.0987 18.0487 39.2443 17.9611C37.4413 15.3168 34.6467 14.9555 33.6647 14.9267C31.3176 14.6782 29.0409 16.3395 27.8453 16.3395C26.6258 16.3395 24.7846 14.9507 22.8003 14.9915C20.2467 15.0311 17.8579 16.5183 16.5477 18.8278C13.8438 23.5367 15.8604 30.4566 18.4509 34.2628C19.7468 36.1281 21.261 38.2083 23.243 38.1351C25.182 38.0558 25.9063 36.8927 28.2462 36.8927C30.5647 36.8927 31.2448 38.1351 33.2662 38.0883C35.3472 38.0558 36.6573 36.2157 37.9079 34.3348C39.4054 32.1994 40.0068 30.0941 40.0306 29.986C39.9829 29.9692 35.9903 28.4352 35.9498 23.7995ZM32.1314 12.4228C33.1743 11.1108 33.8878 9.32595 33.6898 7.51465C32.1803 7.58187 30.2926 8.56494 29.2056 9.84809C28.2438 10.9788 27.3847 12.8321 27.6066 14.575C29.3022 14.7022 31.0432 13.7144 32.1314 12.4228Z" fill="white"/>
<path d="M155.357 0.0522461H75.1655L106.575 48.0522H155.357C156.852 48.051 158.286 47.4533 159.344 46.3904C160.401 45.3274 160.997 43.8859 161 42.3819V5.72501C160.997 4.22065 160.402 2.7787 159.344 1.71529C158.286 0.651892 156.853 0.0538328 155.357 0.0522461Z" fill="url(#paint0_linear_24015_11535)"/>
<path d="M64.0352 37.8674H61.3253L59.8409 33.1753H54.6814L53.2674 37.8674H50.6292L55.7422 21.8934H58.8995L64.0352 37.8674ZM59.3935 31.2068L58.0511 27.0357C57.9091 26.6095 57.6418 25.6061 57.2504 24.0264H57.2027C57.0452 24.7058 56.7934 25.7093 56.4486 27.0357L55.1289 31.2068H59.3935ZM77.1584 31.9666C77.1584 33.9256 76.6298 35.474 75.5714 36.6107C74.624 37.6226 73.4462 38.1279 72.0418 38.1279C70.5252 38.1279 69.4346 37.5842 68.7723 36.4943V42.5379H66.2283V30.1349C66.2283 28.9046 66.1961 27.643 66.1341 26.3491H68.3714L68.5134 28.1748H68.5611C69.4095 26.7992 70.697 26.1114 72.4248 26.1114C73.7756 26.1114 74.9032 26.648 75.8053 27.7222C76.7062 28.7989 77.1584 30.2129 77.1584 31.9666ZM74.5667 32.0602C74.5667 30.9391 74.3161 30.0149 73.8126 29.2863C73.2625 28.5289 72.5239 28.1496 71.5979 28.1496C70.9703 28.1496 70.3999 28.3608 69.8904 28.7773C69.3797 29.1975 69.0456 29.746 68.8893 30.4254C68.8195 30.6795 68.7798 30.941 68.7711 31.2044V33.1261C68.7711 33.9628 69.0265 34.6698 69.5372 35.2483C70.0479 35.8245 70.7113 36.1138 71.5275 36.1138C72.4857 36.1138 73.2315 35.7405 73.7648 34.9999C74.2994 34.2568 74.5667 33.2774 74.5667 32.0602ZM90.3282 31.9666C90.3282 33.9256 89.7996 35.474 88.7412 36.6107C87.7925 37.6226 86.616 38.1279 85.2104 38.1279C83.6938 38.1279 82.6031 37.5842 81.9409 36.4943V42.5379H79.3969V30.1349C79.3969 28.9046 79.3647 27.643 79.3027 26.3491H81.54L81.682 28.1748H81.7297C82.5769 26.7992 83.8644 26.1114 85.5934 26.1114C86.943 26.1114 88.0706 26.648 88.975 27.7222C89.8747 28.7989 90.3282 30.2129 90.3282 31.9666ZM87.7353 32.0602C87.7353 30.9391 87.4835 30.0149 86.9799 29.2863C86.4299 28.5289 85.6936 28.1496 84.7677 28.1496C84.14 28.1496 83.5697 28.3608 83.0578 28.7773C82.5471 29.1975 82.2142 29.746 82.0578 30.4254C81.9803 30.7423 81.9385 31.0003 81.9385 31.2044V33.1261C81.9385 33.9628 82.1951 34.6698 82.7034 35.2483C83.2141 35.8233 83.8775 36.1138 84.6961 36.1138C85.6555 36.1138 86.4012 35.7405 86.9334 34.9999C87.468 34.2568 87.7353 33.2774 87.7353 32.0602ZM105.053 33.3866C105.053 34.7466 104.58 35.8521 103.641 36.7055C102.608 37.637 101.165 38.1039 99.3156 38.1039C97.6069 38.1039 96.2371 37.7726 95.2038 37.1088L95.792 34.9758C96.9077 35.6408 98.1331 35.9721 99.4672 35.9721C100.427 35.9721 101.172 35.7537 101.705 35.3203C102.238 34.8858 102.508 34.3049 102.508 33.5799C102.508 32.9305 102.284 32.3867 101.846 31.9438C101.406 31.5021 100.678 31.0904 99.6557 30.7123C96.8755 29.6692 95.4842 28.1436 95.4842 26.1366C95.4842 24.8259 95.9758 23.7528 96.9566 22.9137C97.9375 22.0759 99.2381 21.657 100.856 21.657C102.301 21.657 103.505 21.9103 104.461 22.4156L103.823 24.5018C102.923 24.012 101.907 23.7672 100.771 23.7672C99.8741 23.7672 99.1701 23.9892 98.6665 24.4309C98.2429 24.8259 98.0281 25.3072 98.0281 25.8785C98.0281 26.5087 98.2728 27.0321 98.7596 27.4426C99.182 27.8207 99.9528 28.2324 101.067 28.6741C102.435 29.2287 103.439 29.8744 104.083 30.6162C104.731 31.358 105.053 32.2835 105.053 33.3866ZM113.485 28.2696H110.681V33.8619C110.681 35.2843 111.175 35.9937 112.166 35.9937C112.62 35.9937 112.997 35.9553 113.296 35.8749L113.366 37.8182C112.865 38.0067 112.205 38.1015 111.388 38.1015C110.383 38.1015 109.598 37.793 109.031 37.176C108.467 36.5591 108.183 35.5256 108.183 34.0708V28.2648H106.512V26.3443H108.183V24.2353L110.681 23.4767V26.3443H113.485V28.2696ZM126.112 32.0134C126.112 33.7839 125.609 35.2375 124.604 36.3742C123.553 37.5445 122.154 38.1279 120.411 38.1279C118.728 38.1279 117.391 37.5674 116.393 36.4474C115.396 35.3251 114.897 33.9112 114.897 32.2055C114.897 30.4206 115.412 28.9586 116.44 27.8219C117.47 26.684 118.856 26.115 120.599 26.115C122.28 26.115 123.629 26.6768 124.65 27.7979C125.627 28.8854 126.112 30.2898 126.112 32.0134ZM123.475 32.0722C123.475 31.0172 123.248 30.1121 122.794 29.3547C122.26 28.44 121.497 27.9827 120.508 27.9827C119.489 27.9827 118.707 28.44 118.175 29.3547C117.719 30.1121 117.492 31.0328 117.492 32.1203C117.492 33.1765 117.719 34.084 118.175 34.839C118.725 35.7537 119.492 36.211 120.486 36.211C121.459 36.211 122.221 35.7441 122.772 34.8162C123.24 34.0408 123.475 33.1297 123.475 32.0722ZM134.385 28.5997C134.12 28.5516 133.852 28.5279 133.583 28.5289C132.688 28.5289 131.996 28.8674 131.509 29.5492C131.087 30.1493 130.874 30.9079 130.874 31.8238V37.8674H128.33V29.9765C128.333 28.7673 128.308 27.5583 128.256 26.3503H130.472L130.565 28.5541H130.636C130.905 27.7967 131.328 27.1857 131.908 26.7284C132.439 26.3288 133.084 26.1124 133.747 26.1114C133.982 26.1114 134.194 26.1282 134.383 26.1582L134.385 28.5997ZM145.762 31.5633C145.769 31.9523 145.738 32.3411 145.669 32.724H138.037C138.066 33.8619 138.436 34.7334 139.145 35.3335C139.788 35.8689 140.62 36.1378 141.641 36.1378C142.771 36.1378 143.802 35.9577 144.729 35.594L145.128 37.3693C144.044 37.8446 142.765 38.0811 141.289 38.0811C139.513 38.0811 138.12 37.5554 137.105 36.5063C136.094 35.456 135.586 34.0444 135.586 32.2763C135.586 30.5406 136.058 29.0942 137.002 27.9407C137.99 26.7092 139.325 26.0934 141.005 26.0934C142.655 26.0934 143.905 26.7092 144.753 27.9407C145.425 28.9166 145.762 30.1265 145.762 31.5633ZM143.337 30.8995C143.354 30.1397 143.187 29.4855 142.843 28.9322C142.402 28.2192 141.725 27.8639 140.816 27.8639C139.985 27.8639 139.307 28.2108 138.792 28.907C138.368 29.4603 138.116 30.1253 138.039 30.8971L143.337 30.8995Z" fill="white"/>
<path d="M53.9474 16.2459C53.2398 16.2459 52.6277 16.2111 52.1182 16.1522V8.42931C52.8308 8.31857 53.5509 8.26399 54.272 8.26606C57.1894 8.26606 58.533 9.71006 58.533 12.0639C58.533 14.7791 56.946 16.2459 53.9474 16.2459ZM54.3746 9.25634C53.9808 9.25634 53.6455 9.28034 53.3675 9.33796V15.2088C53.5178 15.2328 53.8066 15.2436 54.2123 15.2436C56.1239 15.2436 57.2121 14.1489 57.2121 12.0987C57.2121 10.2706 56.2277 9.25634 54.3746 9.25634ZM62.7201 16.3047C61.0758 16.3047 60.0102 15.0695 60.0102 13.3927C60.0102 11.645 61.0985 10.3991 62.8132 10.3991C64.4336 10.3991 65.523 11.5754 65.523 13.3002C65.523 15.0695 64.4002 16.3047 62.7201 16.3047ZM62.7678 11.3185C61.8645 11.3185 61.2858 12.1683 61.2858 13.3567C61.2858 14.5222 61.8765 15.372 62.7559 15.372C63.6353 15.372 64.2259 14.4634 64.2259 13.3327C64.2259 12.1803 63.6472 11.3185 62.7678 11.3185ZM74.8995 10.5155L73.1394 16.1762H71.9927L71.2637 13.718C71.0824 13.1167 70.9314 12.5065 70.8114 11.8899H70.7876C70.6957 12.5068 70.5215 13.125 70.3365 13.718L69.5609 16.1762H68.4023L66.7461 10.5155H68.0312L68.6684 13.2066C68.8187 13.8476 68.9452 14.4526 69.0502 15.0239H69.0741C69.166 14.5474 69.3163 13.952 69.537 13.2186L70.3365 10.5167H71.3555L72.1204 13.161C72.3054 13.802 72.4557 14.431 72.5726 15.0251H72.6061C72.6872 14.443 72.8149 13.8248 72.9879 13.161L73.6716 10.5167L74.8995 10.5155ZM81.3787 16.1762H80.1282V12.9257C80.1282 11.9247 79.7464 11.4229 78.9935 11.4229C78.2525 11.4229 77.7429 12.0639 77.7429 12.8093V16.1762H76.4924V12.1335C76.4924 11.633 76.4805 11.0964 76.4459 10.5143H77.5461L77.6045 11.3881H77.6391C77.9756 10.7832 78.6582 10.3991 79.423 10.3991C80.6043 10.3991 81.3799 11.3077 81.3799 12.7865L81.3787 16.1762ZM84.8272 16.1762H83.5755V7.91797H84.8272V16.1762ZM89.3866 16.3047C87.7435 16.3047 86.6767 15.0695 86.6767 13.3927C86.6767 11.645 87.7649 10.3991 89.4784 10.3991C91.1 10.3991 92.1883 11.5754 92.1883 13.3002C92.1895 15.0695 91.0654 16.3047 89.3866 16.3047ZM89.4331 11.3185C88.5298 11.3185 87.9511 12.1683 87.9511 13.3567C87.9511 14.5222 88.5429 15.372 89.42 15.372C90.3006 15.372 90.89 14.4634 90.89 13.3327C90.8912 12.1803 90.3137 11.3185 89.4331 11.3185ZM97.1187 16.1762L97.0281 15.5245H96.9946C96.6128 16.049 96.0556 16.3047 95.3492 16.3047C94.3409 16.3047 93.6249 15.5941 93.6249 14.6386C93.6249 13.2414 94.8289 12.5188 96.9135 12.5188V12.4144C96.9135 11.669 96.5209 11.2957 95.7453 11.2957C95.1905 11.2957 94.7036 11.4361 94.2753 11.7158L94.0211 10.8888C94.5413 10.5623 95.1905 10.3991 95.9529 10.3991C97.423 10.3991 98.1652 11.1793 98.1652 12.7409V14.8259C98.1652 15.3972 98.1903 15.8401 98.2463 16.1774L97.1187 16.1762ZM96.9469 13.3567C95.558 13.3567 94.8611 13.6952 94.8611 14.4982C94.8611 15.0923 95.2203 15.3828 95.7191 15.3828C96.3551 15.3828 96.9469 14.8943 96.9469 14.2305V13.3567ZM104.238 16.1762L104.179 15.2676H104.145C103.785 15.9542 103.182 16.3047 102.338 16.3047C100.981 16.3047 99.9765 15.1043 99.9765 13.4155C99.9765 11.645 101.018 10.3979 102.441 10.3979C103.194 10.3979 103.727 10.6535 104.028 11.1673H104.053V7.91797H105.304V14.6506C105.304 15.198 105.317 15.7105 105.351 16.1762H104.238ZM104.053 12.8453C104.053 12.0531 103.531 11.3773 102.735 11.3773C101.808 11.3773 101.241 12.2043 101.241 13.3687C101.241 14.5102 101.83 15.2916 102.71 15.2916C103.497 15.2916 104.053 14.6038 104.053 13.7888V12.8453ZM113.241 16.3047C111.597 16.3047 110.532 15.0695 110.532 13.3927C110.532 11.645 111.62 10.3991 113.334 10.3991C114.955 10.3991 116.043 11.5754 116.043 13.3002C116.045 15.0695 114.922 16.3047 113.241 16.3047ZM113.287 11.3185C112.385 11.3185 111.806 12.1683 111.806 13.3567C111.806 14.5222 112.397 15.372 113.275 15.372C114.156 15.372 114.745 14.4634 114.745 13.3327C114.748 12.1803 114.169 11.3185 113.287 11.3185ZM122.769 16.1762H121.517V12.9257C121.517 11.9247 121.135 11.4229 120.382 11.4229C119.641 11.4229 119.133 12.0639 119.133 12.8093V16.1762H117.881V12.1335C117.881 11.633 117.869 11.0964 117.835 10.5143H118.935L118.993 11.3881H119.028C119.363 10.7832 120.047 10.3979 120.81 10.3979C121.992 10.3979 122.769 11.3065 122.769 12.7853V16.1762ZM131.182 11.4589H129.806V14.2077C129.806 14.9075 130.047 15.2568 130.534 15.2568C130.755 15.2568 130.94 15.2328 131.089 15.198L131.124 16.1534C130.881 16.2471 130.557 16.2939 130.154 16.2939C129.168 16.2939 128.578 15.7465 128.578 14.3133V11.4589H127.758V10.5155H128.578V9.4784L129.806 9.1051V10.5143H131.182V11.4589ZM137.802 16.1762H136.553V12.9498C136.553 11.9367 136.172 11.4241 135.418 11.4241C134.77 11.4241 134.166 11.8671 134.166 12.7637V16.1762H132.917V7.91797H134.166V11.3185H134.191C134.585 10.7015 135.156 10.3979 135.883 10.3979C137.074 10.3979 137.802 11.3293 137.802 12.8093V16.1762ZM144.585 13.6483H140.832C140.856 14.7202 141.561 15.3252 142.605 15.3252C143.16 15.3252 143.671 15.2316 144.122 15.0575L144.316 15.9314C143.784 16.1642 143.157 16.2807 142.428 16.2807C140.668 16.2807 139.627 15.162 139.627 13.4275C139.627 11.6918 140.693 10.387 142.288 10.387C143.725 10.387 144.628 11.4589 144.628 13.0782C144.636 13.2693 144.621 13.4607 144.585 13.6483ZM143.438 12.7517C143.438 11.8779 143 11.2609 142.2 11.2609C141.482 11.2609 140.914 11.8899 140.833 12.7517H143.438Z" fill="white"/>
<defs>
<linearGradient id="paint0_linear_24015_11535" x1="118.081" y1="48.1797" x2="118.081" y2="-124.931" gradientUnits="userSpaceOnUse">
<stop stop-color="#1A1A1A" stop-opacity="0.1"/>
<stop offset="0.123" stop-color="#212121" stop-opacity="0.151"/>
<stop offset="0.308" stop-color="#353535" stop-opacity="0.227"/>
<stop offset="0.532" stop-color="#575757" stop-opacity="0.318"/>
<stop offset="0.783" stop-color="#858585" stop-opacity="0.421"/>
<stop offset="1" stop-color="#B3B3B3" stop-opacity="0.51"/>
</linearGradient>
</defs>
</svg>
