<svg width="40" height="41" viewBox="0 0 40 41" fill="none" xmlns="http://www.w3.org/2000/svg">
<rect y="0.0522461" width="40" height="40" rx="20" fill="#919EAB" fill-opacity="0.08"/>
<path d="M10 20.0522H15.625M15.4 13.0522L12 13.0522C11.0572 13.0522 10.5858 13.0522 10.2929 13.3451C10 13.638 10 14.1094 10 15.0522L10 25.0522C10 25.9951 10 26.4665 10.2929 26.7594C10.5858 27.0522 11.0572 27.0522 12 27.0522H15.4C17.3882 27.0522 19 25.4852 19 23.5522C19 21.6192 17.3882 20.0522 15.4 20.0522C17.3882 20.0522 19 18.4852 19 16.5522C19 14.6192 17.3882 13.0522 15.4 13.0522Z" stroke="#637381" stroke-width="1.5" stroke-linecap="round" stroke-linejoin="round"/>
<path d="M28 15.0522L24 15.0522M22 22.0522H30C30 20.0109 28.2091 18.0522 26 18.0522C23.7909 18.0522 22 20.0109 22 22.0522ZM22 22.0522L22 23.0522C22 25.2614 23.7909 27.0522 26 27.0522C27.4806 27.0522 28.7733 26.2478 29.4649 25.0522" stroke="#637381" stroke-width="1.5" stroke-linecap="round" stroke-linejoin="round"/>
</svg>
