<svg width="40" height="41" viewBox="0 0 40 41" fill="none" xmlns="http://www.w3.org/2000/svg">
<rect y="0.0522461" width="40" height="40" rx="20" fill="#919EAB" fill-opacity="0.08"/>
<path d="M10.5 20.0522C10.5 15.5739 10.5 13.3347 11.8912 11.9435C13.2825 10.5522 15.5217 10.5522 20 10.5522C24.4783 10.5522 26.7175 10.5522 28.1088 11.9435C29.5 13.3347 29.5 15.5739 29.5 20.0522C29.5 24.5306 29.5 26.7698 28.1088 28.161C26.7175 29.5522 24.4783 29.5522 20 29.5522C15.5217 29.5522 13.2825 29.5522 11.8912 28.161C10.5 26.7698 10.5 24.5306 10.5 20.0522Z" stroke="#637381" stroke-width="1.5" stroke-linejoin="round"/>
<path d="M25 16.8022C25.4142 16.8022 25.75 16.4665 25.75 16.0522C25.75 15.638 25.4142 15.3022 25 15.3022V16.8022ZM24 16.0522V16.8022V16.0522ZM19.25 29.5522C19.25 29.9665 19.5858 30.3022 20 30.3022C20.4142 30.3022 20.75 29.9665 20.75 29.5522H19.25ZM18 21.3022C17.5858 21.3022 17.25 21.638 17.25 22.0522C17.25 22.4665 17.5858 22.8022 18 22.8022V21.3022ZM23 22.8022C23.4142 22.8022 23.75 22.4665 23.75 22.0522C23.75 21.638 23.4142 21.3022 23 21.3022V22.8022ZM25 16.0522V15.3022H24V16.0522V16.8022H25V16.0522ZM20 20.0522H19.25L19.25 29.5522H20H20.75L20.75 20.0522H20ZM24 16.0522V15.3022C23.0784 15.3022 22.3117 15.3007 21.7055 15.3822C21.0777 15.4666 20.5109 15.6522 20.0555 16.1077L20.5858 16.638L21.1161 17.1684C21.2464 17.038 21.4439 16.9308 21.9054 16.8688C22.3884 16.8038 23.036 16.8022 24 16.8022V16.0522ZM20 20.0522H20.75C20.75 19.0882 20.7516 18.4407 20.8165 17.9576C20.8786 17.4962 20.9858 17.2987 21.1161 17.1684L20.5858 16.638L20.0555 16.1077C19.6 16.5632 19.4143 17.13 19.3299 17.7578C19.2484 18.364 19.25 19.1306 19.25 20.0522H20ZM18 22.0522V22.8022H23V22.0522V21.3022H18V22.0522Z" fill="#637381"/>
</svg>
