<svg width="22" height="22" viewBox="0 0 22 22" fill="none" xmlns="http://www.w3.org/2000/svg">
<path d="M6 9.05225L6 16.0522" stroke="#637381" stroke-width="1.5" stroke-linecap="round" stroke-linejoin="round"/>
<path d="M10 12.0522L10 16.0522M10 12.0522C10 10.3954 11.3431 9.05225 13 9.05225C14.6569 9.05225 16 10.3954 16 12.0522L16 16.0522M10 12.0522V9.05225" stroke="#637381" stroke-width="1.5" stroke-linecap="round" stroke-linejoin="round"/>
<path d="M6.00801 6.05225L5.99902 6.05225" stroke="#637381" stroke-width="2" stroke-linecap="round" stroke-linejoin="round"/>
<path d="M1.5 11.0522C1.5 6.5739 1.5 4.33473 2.89124 2.94349C4.28249 1.55225 6.52166 1.55225 11 1.55225C15.4783 1.55225 17.7175 1.55225 19.1088 2.94349C20.5 4.33473 20.5 6.5739 20.5 11.0522C20.5 15.5306 20.5 17.7698 19.1088 19.161C17.7175 20.5522 15.4783 20.5522 11 20.5522C6.52166 20.5522 4.28249 20.5522 2.89124 19.161C1.5 17.7698 1.5 15.5306 1.5 11.0522Z" stroke="#637381" stroke-width="1.5" stroke-linejoin="round"/>
</svg>
