<svg width="22" height="22" viewBox="0 0 22 22" fill="none" xmlns="http://www.w3.org/2000/svg">
<path d="M9.08082 1C4.47023 1.9359 1 6.01218 1 10.899C1 16.4776 5.52238 21 11.101 21C15.9878 21 20.0641 17.5298 21 12.9192" stroke="#637381" stroke-width="1.5" stroke-linecap="round"/>
<path d="M17.9375 17C18.3216 16.9166 18.6771 16.784 19 16.603M13.6875 16.3406C14.2831 16.6015 14.8576 16.7948 15.4051 16.9218M9.85461 13.9477C10.2681 14.238 10.71 14.5861 11.1403 14.8865M2 12.825C2.32234 12.6675 2.67031 12.4868 3.0625 12.3321M5.45105 12C6.01293 12.0624 6.64301 12.2226 7.35743 12.5232" stroke="#637381" stroke-width="1.5" stroke-linecap="round" stroke-linejoin="round"/>
<path d="M17 6.5C17 5.67157 16.3284 5 15.5 5C14.6716 5 14 5.67157 14 6.5C14 7.32843 14.6716 8 15.5 8C16.3284 8 17 7.32843 17 6.5Z" stroke="#637381" stroke-width="1.5"/>
<path d="M16.488 12.6202C16.223 12.8638 15.8687 13 15.5001 13C15.1315 13 14.7773 12.8638 14.5123 12.6202C12.0855 10.3756 8.83336 7.86815 10.4193 4.2278C11.2769 2.25949 13.3353 1 15.5001 1C17.6649 1 19.7234 2.25949 20.5809 4.2278C22.1649 7.86356 18.9207 10.3833 16.488 12.6202Z" stroke="#637381" stroke-width="1.5"/>
</svg>
