<svg width="207" height="45" viewBox="0 0 207 45" fill="none" xmlns="http://www.w3.org/2000/svg">
<g filter="url(#filter0_d_24015_11473)">
<path d="M14.3001 16.6439C21.5832 12.1193 25.046 16.4554 28.083 22.1586C25.5699 26.6786 23.9074 29.4369 23.0951 30.4336C21.5635 32.3138 19.8927 33.7373 17.8377 34.5587C13.5177 36.5643 8.14721 36.6581 4 34.1784L14.3001 16.6439Z" fill="url(#paint0_linear_24015_11473)"/>
<path fill-rule="evenodd" clip-rule="evenodd" d="M65.2595 14.3052C58.6723 2.9208 51.8632 -7.80502 44.0415 7.92877C42.9715 9.95143 42.1916 13.8824 40.4444 13.8824V13.8624C38.6973 13.8624 37.9177 9.93146 36.8476 7.9088C29.0256 -7.82499 22.2166 2.90083 15.6294 14.2853C15.1337 15.1438 14.6575 15.9632 14.25 16.6753C29.3457 7.23564 28.0747 35.7534 40.4444 35.98V36C52.8144 35.7734 51.5432 7.25562 66.6389 16.695C66.2316 15.9832 65.7554 15.1638 65.2595 14.3052Z" fill="url(#paint1_linear_24015_11473)"/>
<path fill-rule="evenodd" clip-rule="evenodd" d="M66.0694 36C69.8432 36 72.9027 32.9778 72.9027 29.25C72.9027 25.5222 69.8432 22.5 66.0694 22.5C62.2956 22.5 59.2361 25.5222 59.2361 29.25C59.2361 32.9778 62.2956 36 66.0694 36Z" fill="url(#paint2_linear_24015_11473)"/>
</g>
<path fill-rule="evenodd" clip-rule="evenodd" d="M85.1637 7.4332C87.1691 7.4332 88.6213 6.08957 88.6213 4.26771C88.6213 2.44585 87.1691 1.125 85.1637 1.125C83.2045 1.125 81.7292 2.44585 81.7292 4.26771C81.7292 6.08957 83.2045 7.4332 85.1637 7.4332ZM85.1637 34.7839C87.0538 34.7839 88.2064 33.668 88.2064 31.4818V13.4909C88.2064 11.3047 87.0538 10.166 85.1868 10.166C83.2967 10.166 82.1442 11.3047 82.1442 13.4909V31.4818C82.1442 33.6452 83.2967 34.7839 85.1637 34.7839ZM116.12 31.5046C116.12 33.6225 115.037 34.7839 113.101 34.7839C111.141 34.7839 110.058 33.5997 110.058 31.4818V20.004C110.058 16.8386 108.467 15.0622 105.655 15.0622C102.497 15.0622 100.515 17.3623 100.515 21.1199V31.4818C100.515 33.5997 99.4087 34.7839 97.4725 34.7839C95.5363 34.7839 94.4299 33.5997 94.4299 31.4818V13.377C94.4299 11.3957 95.5824 10.166 97.4264 10.166C99.2474 10.166 100.308 11.2363 100.377 13.1721V14.6523H100.677C101.622 11.7829 104.365 10.0066 107.96 10.0066C113.17 10.0066 116.12 13.0582 116.12 18.3644V31.5046ZM125.179 7.4332C127.184 7.4332 128.636 6.08957 128.636 4.26771C128.636 2.44585 127.184 1.125 125.179 1.125C123.22 1.125 121.744 2.44585 121.744 4.26771C121.744 6.08957 123.22 7.4332 125.179 7.4332ZM128.221 31.4818C128.221 33.668 127.069 34.7839 125.179 34.7839C123.312 34.7839 122.159 33.6452 122.159 31.4818V13.4909C122.159 11.3047 123.312 10.166 125.202 10.166C127.069 10.166 128.221 11.3047 128.221 13.4909V31.4818ZM166.577 34.7839C168.513 34.7839 169.62 33.6225 169.62 31.4818V17.6812C169.62 12.8988 166.669 10.0066 161.736 10.0066C158.21 10.0066 155.444 11.7601 154.383 14.5612H154.107C153.3 11.7373 150.811 10.0066 147.376 10.0066C144.057 10.0066 141.498 11.6918 140.692 14.4018H140.392V13.2632C140.3 11.3274 139.216 10.166 137.442 10.166C135.598 10.166 134.445 11.3957 134.445 13.3998V31.4818C134.445 33.6225 135.551 34.7839 137.488 34.7839C139.424 34.7839 140.53 33.6225 140.53 31.4818V19.7991C140.53 16.8613 142.259 14.9712 144.841 14.9712C147.468 14.9712 149.105 16.7247 149.105 19.5941V31.4818C149.105 33.6225 150.142 34.7839 152.032 34.7839C153.945 34.7839 154.983 33.6225 154.983 31.4818V19.8219C154.983 16.9069 156.758 14.9712 159.362 14.9712C161.99 14.9712 163.557 16.6108 163.557 19.4803V31.4818C163.557 33.6225 164.641 34.7839 166.577 34.7839ZM188.936 31.4818C187.691 33.6452 185.271 34.875 182.274 34.875C177.503 34.875 174.276 31.9145 174.276 27.5192C174.276 23.0557 177.618 20.3001 183.173 20.3001H188.982V18.3188C188.982 15.8821 187.437 14.6068 184.648 14.6068C182.804 14.6068 181.49 15.29 180.131 16.497C179.439 17.0435 178.794 17.294 177.802 17.294C176.466 17.294 175.636 16.4059 175.636 15.1761C175.636 13.7642 176.627 12.3295 178.771 11.2591C180.315 10.462 182.366 10.0066 185.04 10.0066C191.448 10.0066 195.044 13.0127 195.044 18.3644V31.5729C195.044 33.6225 193.984 34.7839 192.094 34.7839C190.48 34.7839 189.42 33.8957 189.235 32.3244V31.4818H188.936ZM184.303 30.5481C181.928 30.5481 180.315 29.1589 180.315 27.1549C180.315 25.1736 181.79 23.9894 184.28 23.9894H188.982V26.4944C188.982 28.7718 186.93 30.5481 184.303 30.5481ZM207.007 31.4818C207.007 33.668 205.831 34.7839 203.964 34.7839C202.074 34.7839 200.922 33.668 200.922 31.4818V4.97368C200.922 2.78745 202.074 1.64879 203.964 1.64879C205.831 1.64879 207.007 2.78745 207.007 4.97368V31.4818Z" fill="#212B36"/>
<defs>
<filter id="filter0_d_24015_11473" x="0" y="0" width="76.9028" height="44.0522" filterUnits="userSpaceOnUse" color-interpolation-filters="sRGB">
<feFlood flood-opacity="0" result="BackgroundImageFix"/>
<feColorMatrix in="SourceAlpha" type="matrix" values="0 0 0 0 0 0 0 0 0 0 0 0 0 0 0 0 0 0 127 0" result="hardAlpha"/>
<feOffset dy="4"/>
<feGaussianBlur stdDeviation="2"/>
<feComposite in2="hardAlpha" operator="out"/>
<feColorMatrix type="matrix" values="0 0 0 0 0 0 0 0 0 0 0 0 0 0 0 0 0 0 0.25 0"/>
<feBlend mode="normal" in2="BackgroundImageFix" result="effect1_dropShadow_24015_11473"/>
<feBlend mode="normal" in="SourceGraphic" in2="effect1_dropShadow_24015_11473" result="shape"/>
</filter>
<linearGradient id="paint0_linear_24015_11473" x1="23.6458" y1="5.59526" x2="11.4949" y2="18.6583" gradientUnits="userSpaceOnUse">
<stop stop-color="#007B55"/>
<stop offset="1" stop-color="#00AB55"/>
</linearGradient>
<linearGradient id="paint1_linear_24015_11473" x1="14.25" y1="0" x2="14.25" y2="36" gradientUnits="userSpaceOnUse">
<stop stop-color="#5BE584"/>
<stop offset="1" stop-color="#00AB55"/>
</linearGradient>
<linearGradient id="paint2_linear_24015_11473" x1="59.2361" y1="22.5" x2="59.2361" y2="36" gradientUnits="userSpaceOnUse">
<stop stop-color="#5BE584"/>
<stop offset="1" stop-color="#00AB55"/>
</linearGradient>
</defs>
</svg>
