<svg width="32" height="32" viewBox="0 0 32 32" fill="none" xmlns="http://www.w3.org/2000/svg">
<path d="M11.4677 4.53731C13.5284 6.59808 13.0132 8.58876 11.4677 10.1343C9.92208 11.6799 7.93139 12.1951 5.87062 10.1343C3.80985 8.07357 4.00494 2.67163 4.00494 2.67163C4.00494 2.67163 9.40688 2.47654 11.4677 4.53731Z" fill="#DFE3E8"/>
<path d="M26.03 6.00503C24.5024 5.08455 22.8351 5.11383 22.3059 6.07041C22.0929 6.45537 22.0968 6.93184 22.2769 7.42381C22.4853 7.99276 22.5399 8.65186 22.1929 9.14158L17.3333 16H23.2784L25.3459 11.0414C25.5788 10.4829 26.153 10.2028 26.7293 10.1066C27.2276 10.0235 27.6249 9.7887 27.8379 9.40374C28.367 8.44716 27.5577 6.9255 26.03 6.00503Z" fill="white"/>
<path d="M6.61675 16L25.3833 16C26.6858 16 27.3371 16 27.7396 16.5004C28.1421 17.0008 28.0181 17.549 27.7701 18.6454C27.0486 21.8351 25.0502 24.544 22.3369 26.2132C21.8152 26.5342 21.5925 27.1967 21.8741 27.7389C22.2519 28.4663 21.7211 29.3333 20.898 29.3333L11.102 29.3333C10.2789 29.3333 9.74805 28.4663 10.1259 27.7389C10.4075 27.1967 10.1848 26.5342 9.66306 26.2132C6.94983 24.544 4.95141 21.8351 4.22993 18.6454C3.98193 17.549 3.85794 17.0008 4.2604 16.5004C4.66287 16 5.31416 16 6.61675 16Z" fill="#DFE3E8"/>
<path d="M6.61675 16L25.3833 16C26.6858 16 27.3371 16 27.7396 16.5004C28.1421 17.0008 28.0181 17.549 27.7701 18.6454C27.0486 21.8351 25.0502 24.544 22.3369 26.2132C21.8152 26.5342 21.5925 27.1967 21.8741 27.7389C22.2519 28.4663 21.7211 29.3333 20.898 29.3333L11.102 29.3333C10.2789 29.3333 9.74805 28.4663 10.1259 27.7389C10.4075 27.1967 10.1848 26.5342 9.66306 26.2132C6.94983 24.544 4.95141 21.8351 4.22993 18.6454C3.98193 17.549 3.85794 17.0008 4.2604 16.5004C4.66287 16 5.31416 16 6.61675 16Z" stroke="#161C24" stroke-width="1.5" stroke-linejoin="round"/>
<path d="M23.2784 16L25.3459 11.0414C25.5788 10.4829 26.153 10.2028 26.7293 10.1066C27.2276 10.0235 27.6249 9.7887 27.8379 9.40374C28.367 8.44716 27.5577 6.9255 26.03 6.00503C24.5024 5.08455 22.8351 5.11383 22.3059 6.07041C22.0929 6.45537 22.0968 6.93184 22.2769 7.42381C22.4853 7.99276 22.5399 8.65186 22.1929 9.14158L17.3333 16" stroke="#161C24" stroke-width="1.5"/>
<path d="M8.66914 7.33583L13.3333 12M11.4677 4.53731C13.5284 6.59808 13.0132 8.58876 11.4677 10.1343C9.92208 11.6799 7.93139 12.1951 5.87062 10.1343C3.80985 8.07357 4.00494 2.67163 4.00494 2.67163C4.00494 2.67163 9.40689 2.47654 11.4677 4.53731Z" stroke="#161C24" stroke-width="1.5" stroke-linecap="round" stroke-linejoin="round"/>
</svg>
