<svg width="56" height="56" viewBox="0 0 56 56" fill="none" xmlns="http://www.w3.org/2000/svg">
<rect width="56" height="56" rx="28" fill="#919EAB" fill-opacity="0.08"/>
<path d="M23.4677 16.5373C25.5284 18.5981 25.0132 20.5888 23.4677 22.1343C21.9221 23.6799 19.9314 24.1951 17.8706 22.1343C15.8099 20.0736 16.0049 14.6716 16.0049 14.6716C16.0049 14.6716 21.4069 14.4765 23.4677 16.5373Z" fill="#DFE3E8"/>
<path d="M38.03 18.005C36.5024 17.0846 34.8351 17.1138 34.3059 18.0704C34.0929 18.4554 34.0968 18.9318 34.2769 19.4238C34.4853 19.9928 34.5399 20.6519 34.1929 21.1416L29.3333 28H35.2784L37.3459 23.0414C37.5788 22.4829 38.153 22.2028 38.7293 22.1066C39.2276 22.0235 39.6249 21.7887 39.8379 21.4037C40.367 20.4472 39.5577 18.9255 38.03 18.005Z" fill="white"/>
<path d="M18.6167 28L37.3833 28C38.6858 28 39.3371 28 39.7396 28.5004C40.1421 29.0008 40.0181 29.549 39.7701 30.6454C39.0486 33.8351 37.0502 36.544 34.3369 38.2132C33.8152 38.5342 33.5925 39.1967 33.8741 39.7389C34.2519 40.4663 33.7211 41.3333 32.898 41.3333H23.102C22.2789 41.3333 21.7481 40.4663 22.1259 39.7389C22.4075 39.1967 22.1848 38.5342 21.6631 38.2132C18.9498 36.544 16.9514 33.8351 16.2299 30.6454C15.9819 29.549 15.8579 29.0008 16.2604 28.5004C16.6629 28 17.3142 28 18.6167 28Z" fill="#DFE3E8"/>
<path d="M18.6167 28L37.3833 28C38.6858 28 39.3371 28 39.7396 28.5004C40.1421 29.0008 40.0181 29.549 39.7701 30.6454C39.0486 33.8351 37.0502 36.544 34.3369 38.2132C33.8152 38.5342 33.5925 39.1967 33.8741 39.7389C34.2519 40.4663 33.7211 41.3333 32.898 41.3333H23.102C22.2789 41.3333 21.7481 40.4663 22.1259 39.7389C22.4075 39.1967 22.1848 38.5342 21.6631 38.2132C18.9498 36.544 16.9514 33.8351 16.2299 30.6454C15.9819 29.549 15.8579 29.0008 16.2604 28.5004C16.6629 28 17.3142 28 18.6167 28Z" stroke="#161C24" stroke-width="1.5" stroke-linejoin="round"/>
<path d="M35.2784 28L37.3459 23.0414C37.5788 22.4829 38.153 22.2028 38.7293 22.1066C39.2276 22.0235 39.6249 21.7887 39.8379 21.4037C40.367 20.4472 39.5577 18.9255 38.03 18.005C36.5024 17.0846 34.8351 17.1138 34.3059 18.0704C34.0929 18.4554 34.0968 18.9318 34.2769 19.4238C34.4853 19.9928 34.5399 20.6519 34.1929 21.1416L29.3333 28" stroke="#161C24" stroke-width="1.5"/>
<path d="M20.6691 19.3358L25.3333 24M23.4677 16.5373C25.5284 18.5981 25.0132 20.5888 23.4677 22.1343C21.9221 23.6799 19.9314 24.1951 17.8706 22.1343C15.8099 20.0736 16.0049 14.6716 16.0049 14.6716C16.0049 14.6716 21.4069 14.4765 23.4677 16.5373Z" stroke="#161C24" stroke-width="1.5" stroke-linecap="round" stroke-linejoin="round"/>
</svg>
