<svg width="32" height="32" viewBox="0 0 32 32" fill="none" xmlns="http://www.w3.org/2000/svg">
<path d="M16.0005 4.66663C17.3347 4.66663 18.6689 3.99996 19.336 2.66663L22.671 3.40725C22.671 3.4069 22.671 3.40759 22.671 3.40725L23.2461 3.53393C24.5894 3.83225 25.7976 4.6296 26.2842 5.91596C27.167 8.24941 27.8913 11.9774 27.995 17.3309C28.0071 17.9541 28.0131 18.2658 27.817 18.4656C27.6208 18.6655 27.3051 18.6655 26.6735 18.6655H23.955C23.955 18.6651 23.9551 18.6659 23.955 18.6655C24.1469 19.9827 24.5255 22.1569 24.8382 23.906C25.0743 25.226 25.1923 25.8861 24.7449 26.7081C24.2975 27.5302 23.8457 27.7198 22.9422 28.0991C21.4366 28.7312 19.1705 29.3333 16.0005 29.3333C12.8306 29.3333 10.5644 28.7312 9.05891 28.0991C8.15533 27.7198 7.70354 27.5302 7.25615 26.7081C6.80877 25.8861 6.92679 25.226 7.16284 23.906C7.47562 22.1569 7.85396 19.9839 8.04586 18.6666C9.04223 11.8274 9.32957 6.48739 9.32957 3.40737L12.6651 2.66663C13.3322 3.99996 14.6663 4.66663 16.0005 4.66663Z" fill="#DFE3E8"/>
<path d="M4.18304 18.4656C4.37918 18.6655 4.69494 18.6655 5.32646 18.6655L8.04586 18.6666C9.04223 11.8274 9.32957 6.48739 9.32957 3.40737L8.75394 3.53393C7.41061 3.83225 6.2024 4.6296 5.71577 5.91596C4.83303 8.24941 4.1087 11.9774 4.005 17.3309C3.99293 17.9541 3.98689 18.2658 4.18304 18.4656Z" fill="#DFE3E8"/>
<path d="M22.6702 3.40737L19.3348 2.66663C19.1779 2.98017 18.9841 3.25684 18.7622 3.49665L18.7073 3.99996C18.5113 8.63764 18.8249 18.3304 23.9993 20L24.1728 20.0645C24.0874 19.5437 24.0121 19.0658 23.954 18.6666C22.9576 11.8274 22.6702 6.48739 22.6702 3.40737Z" fill="white"/>
<path d="M9.32832 3.40737L12.6638 2.66663C12.8149 2.9686 13.0002 3.23638 13.212 3.46997L13.2915 3.99996C13.4875 8.63764 13.1733 18.3304 7.99928 20L7.82544 20.0665C7.91097 19.5449 7.98638 19.0664 8.04461 18.6666C9.04098 11.8274 9.32832 6.48739 9.32832 3.40737Z" fill="white"/>
<path d="M22.671 3.40737L19.3355 2.66663C18.6684 3.99996 17.3342 4.66663 16 4.66663C14.6658 4.66663 13.3316 3.99996 12.6645 2.66663L9.32904 3.40737M22.671 3.40737L23.2461 3.53508C24.5894 3.83341 25.7976 4.63076 26.2842 5.91712C27.167 8.25057 27.8913 11.9786 27.995 17.332C28.0071 17.9553 28.0131 18.2669 27.817 18.4668C27.6208 18.6666 27.3051 18.6666 26.6735 18.6666H23.9547M22.671 3.40737C22.671 6.48739 22.9583 11.8274 23.9547 18.6666M23.9547 18.6666C24.1466 19.9839 24.5249 22.1569 24.8377 23.906C25.0737 25.226 25.1918 25.8861 24.7444 26.7081C24.297 27.5302 23.8452 27.7198 22.9416 28.0991C21.4361 28.7312 19.1699 29.3333 16 29.3333C12.8301 29.3333 10.5639 28.7312 9.05838 28.0991C8.15479 27.7198 7.703 27.5302 7.25562 26.7081C6.80823 25.8861 6.92626 25.226 7.1623 23.906C7.47508 22.1569 7.85343 19.9839 8.04533 18.6666M9.32904 3.40737L8.75394 3.53508C7.41061 3.83341 6.2024 4.63076 5.71577 5.91712C4.83303 8.25057 4.1087 11.9786 4.005 17.332C3.99293 17.9553 3.98689 18.2669 4.18304 18.4668C4.37918 18.6666 4.69494 18.6666 5.32646 18.6666H8.04533M9.32904 3.40737C9.32904 6.48739 9.0417 11.8274 8.04533 18.6666" stroke="#161C24" stroke-width="1.5" stroke-linecap="round" stroke-linejoin="round"/>
<path d="M18.708 4C18.512 8.63768 18.8256 18.3304 24 20M13.2923 4C13.4882 8.63768 13.174 18.3304 8 20" stroke="#161C24" stroke-width="1.5" stroke-linecap="round" stroke-linejoin="round"/>
</svg>
