<svg width="56" height="56" viewBox="0 0 56 56" fill="none" xmlns="http://www.w3.org/2000/svg">
<rect width="56" height="56" rx="28" fill="#919EAB" fill-opacity="0.08"/>
<path d="M38.6666 21.3333V32H17.3333V21.3333C17.3333 18.8192 17.3333 17.5621 18.1143 16.781C18.8953 16 20.1524 16 22.6666 16H33.3333C35.8474 16 37.1045 16 37.8855 16.781C38.6666 17.5621 38.6666 18.8192 38.6666 21.3333Z" fill="#DFE3E8"/>
<path d="M16.6636 33.3539L17.3595 32H38.6025L39.3365 33.3539C41.2603 36.9026 41.7395 38.6769 41.0083 40.0051C40.277 41.3333 38.3382 41.3333 34.4606 41.3333L21.5396 41.3333C17.662 41.3333 15.7232 41.3333 14.9919 40.0051C14.2607 38.6769 14.7397 36.9026 16.6636 33.3539Z" fill="white"/>
<path d="M39.6988 18.2885C38.9018 17.138 37.5428 16.3802 36.0004 16.3802C34.4579 16.3802 33.0989 17.138 32.3019 18.2885C31.8307 18.9688 31.5559 19.7864 31.5559 20.666C31.5559 21.5456 31.8307 22.3634 32.3021 23.0437C33.0991 24.1941 34.458 24.9517 36.0004 24.9517C37.5427 24.9517 38.9016 24.1941 39.6986 23.0437C40.17 22.3634 40.4448 21.5456 40.4448 20.666C40.4448 19.7864 40.17 18.9688 39.6988 18.2885Z" fill="white"/>
<path d="M38.6666 32V30M17.3333 32V21.3333C17.3333 18.8192 17.3333 17.5621 18.1143 16.781C18.8953 16 20.1524 16 22.6666 16H26.6666" stroke="#212B36" stroke-width="1.5" stroke-linecap="round" stroke-linejoin="round"/>
<path d="M36.0001 24.9524V26.6667M36.0001 24.9524C34.4577 24.9524 33.0988 24.1948 32.3018 23.0444M36.0001 24.9524C37.5425 24.9524 38.9013 24.1948 39.6983 23.0444M36.0001 16.381C37.5426 16.381 38.9015 17.1387 39.6985 18.2892M36.0001 16.381C34.4576 16.381 33.0986 17.1387 32.3017 18.2892M36.0001 16.381V14.6667M41.3334 17.2381L39.6985 18.2892M30.6673 24.0953L32.3018 23.0444M30.6667 17.2381L32.3017 18.2892M41.3329 24.0953L39.6983 23.0444M39.6985 18.2892C40.1698 18.9695 40.4445 19.7872 40.4445 20.6667C40.4445 21.5463 40.1697 22.3641 39.6983 23.0444M32.3017 18.2892C31.8304 18.9695 31.5556 19.7872 31.5556 20.6667C31.5556 21.5463 31.8305 22.3641 32.3018 23.0444" stroke="#212B36" stroke-width="1.5" stroke-linecap="round"/>
<path d="M16.6636 33.3539L17.3595 32H38.6025L39.3365 33.3539C41.2603 36.9026 41.7395 38.6769 41.0083 40.0051C40.277 41.3333 38.3382 41.3333 34.4606 41.3333L21.5396 41.3333C17.662 41.3333 15.7232 41.3333 14.9919 40.0051C14.2607 38.6769 14.7397 36.9026 16.6636 33.3539Z" stroke="#212B36" stroke-width="1.5" stroke-linecap="round" stroke-linejoin="round"/>
</svg>
