<svg width="32" height="32" viewBox="0 0 32 32" fill="none" xmlns="http://www.w3.org/2000/svg">
<path d="M26.6666 9.33333V20H5.33325V9.33333C5.33325 6.81918 5.33325 5.5621 6.1143 4.78105C6.89535 4 8.15243 4 10.6666 4H21.3333C23.8474 4 25.1045 4 25.8855 4.78105C26.6666 5.5621 26.6666 6.81918 26.6666 9.33333Z" fill="#DFE3E8"/>
<path d="M4.66357 21.3539L5.35946 20H26.6025L27.3365 21.3539C29.2603 24.9026 29.7395 26.6769 29.0083 28.0051C28.277 29.3333 26.3382 29.3333 22.4606 29.3333L9.53958 29.3333C5.66197 29.3333 3.72317 29.3333 2.99191 28.0051C2.26065 26.6769 2.73974 24.9026 4.66357 21.3539Z" fill="white"/>
<path d="M27.6988 6.28846C26.9018 5.13797 25.5428 4.38025 24.0004 4.38025C22.4579 4.38025 21.0989 5.13797 20.3019 6.28846C19.8307 6.96878 19.5559 7.78643 19.5559 8.66596C19.5559 9.54561 19.8307 10.3634 20.3021 11.0437C21.0991 12.1941 22.458 12.9517 24.0004 12.9517C25.5427 12.9517 26.9016 12.1941 27.6986 11.0437C28.17 10.3634 28.4448 9.54561 28.4448 8.66596C28.4448 7.78643 28.17 6.96878 27.6988 6.28846Z" fill="white"/>
<path d="M26.6666 20V18M5.33325 20V9.33333C5.33325 6.81918 5.33325 5.5621 6.1143 4.78105C6.89535 4 8.15243 4 10.6666 4H14.6666" stroke="#212B36" stroke-width="1.5" stroke-linecap="round" stroke-linejoin="round"/>
<path d="M24.0001 12.9524V14.6667M24.0001 12.9524C22.4577 12.9524 21.0988 12.1948 20.3018 11.0444M24.0001 12.9524C25.5425 12.9524 26.9013 12.1948 27.6983 11.0444M24.0001 4.38097C25.5426 4.38097 26.9015 5.13869 27.6985 6.28919M24.0001 4.38097C22.4576 4.38097 21.0986 5.13869 20.3017 6.28919M24.0001 4.38097V2.66669M29.3334 5.23812L27.6985 6.28919M18.6673 12.0953L20.3018 11.0444M18.6667 5.23812L20.3017 6.28919M29.3329 12.0953L27.6983 11.0444M27.6985 6.28919C28.1698 6.9695 28.4445 7.78715 28.4445 8.66669C28.4445 9.54633 28.1697 10.3641 27.6983 11.0444M20.3017 6.28919C19.8304 6.9695 19.5556 7.78715 19.5556 8.66669C19.5556 9.54633 19.8305 10.3641 20.3018 11.0444" stroke="#212B36" stroke-width="1.5" stroke-linecap="round"/>
<path d="M4.66357 21.3539L5.35946 20H26.6025L27.3365 21.3539C29.2603 24.9026 29.7395 26.6769 29.0083 28.0051C28.277 29.3333 26.3382 29.3333 22.4606 29.3333L9.53958 29.3333C5.66197 29.3333 3.72317 29.3333 2.99191 28.0051C2.26065 26.6769 2.73974 24.9026 4.66357 21.3539Z" stroke="#212B36" stroke-width="1.5" stroke-linecap="round" stroke-linejoin="round"/>
</svg>
