<svg width="56" height="56" viewBox="0 0 56 56" fill="none" xmlns="http://www.w3.org/2000/svg">
<rect width="56" height="56" rx="28" fill="#919EAB" fill-opacity="0.08"/>
<path d="M28.0005 16.6666C29.3347 16.6666 30.6689 16 31.336 14.6666L34.671 15.4072C34.671 15.4069 34.671 15.4076 34.671 15.4072L35.2461 15.5339C36.5894 15.8323 37.7976 16.6296 38.2842 17.916C39.167 20.2494 39.8913 23.9774 39.995 29.3309C40.0071 29.9541 40.0131 30.2658 39.817 30.4656C39.6208 30.6655 39.3051 30.6655 38.6735 30.6655H35.955C35.955 30.6651 35.9551 30.6659 35.955 30.6655C36.1469 31.9827 36.5255 34.1569 36.8382 35.906C37.0743 37.226 37.1923 37.8861 36.7449 38.7081C36.2975 39.5302 35.8457 39.7198 34.9422 40.0991C33.4366 40.7312 31.1705 41.3333 28.0005 41.3333C24.8306 41.3333 22.5644 40.7312 21.0589 40.0991C20.1553 39.7198 19.7035 39.5302 19.2562 38.7081C18.8088 37.8861 18.9268 37.226 19.1628 35.906C19.4756 34.1569 19.854 31.9839 20.0459 30.6666C21.0422 23.8274 21.3296 18.4874 21.3296 15.4074L24.6651 14.6666C25.3322 16 26.6663 16.6666 28.0005 16.6666Z" fill="#DFE3E8"/>
<path d="M16.183 30.4656C16.3792 30.6655 16.6949 30.6655 17.3265 30.6655L20.0459 30.6666C21.0422 23.8274 21.3296 18.4874 21.3296 15.4074L20.7539 15.5339C19.4106 15.8323 18.2024 16.6296 17.7158 17.916C16.833 20.2494 16.1087 23.9774 16.005 29.3309C15.9929 29.9541 15.9869 30.2658 16.183 30.4656Z" fill="#DFE3E8"/>
<path d="M34.6702 15.4074L31.3348 14.6666C31.1779 14.9802 30.9841 15.2568 30.7622 15.4967L30.7073 16C30.5113 20.6376 30.8249 30.3304 35.9993 32L36.1728 32.0645C36.0874 31.5437 36.0121 31.0658 35.954 30.6666C34.9576 23.8274 34.6702 18.4874 34.6702 15.4074Z" fill="white"/>
<path d="M21.3283 15.4074L24.6638 14.6666C24.8149 14.9686 25.0002 15.2364 25.212 15.47L25.2915 16C25.4875 20.6376 25.1733 30.3304 19.9993 32L19.8254 32.0665C19.911 31.5449 19.9864 31.0664 20.0446 30.6666C21.041 23.8274 21.3283 18.4874 21.3283 15.4074Z" fill="white"/>
<path d="M34.671 15.4074L31.3355 14.6666C30.6684 16 29.3342 16.6666 28 16.6666C26.6658 16.6666 25.3316 16 24.6645 14.6666L21.329 15.4074M34.671 15.4074L35.2461 15.5351C36.5894 15.8334 37.7976 16.6308 38.2842 17.9171C39.167 20.2506 39.8913 23.9786 39.995 29.332C40.0071 29.9553 40.0131 30.2669 39.817 30.4668C39.6208 30.6666 39.3051 30.6666 38.6735 30.6666H35.9547M34.671 15.4074C34.671 18.4874 34.9583 23.8274 35.9547 30.6666M35.9547 30.6666C36.1466 31.9839 36.5249 34.1569 36.8377 35.906C37.0737 37.226 37.1918 37.8861 36.7444 38.7081C36.297 39.5302 35.8452 39.7198 34.9416 40.0991C33.4361 40.7312 31.1699 41.3333 28 41.3333C24.8301 41.3333 22.5639 40.7312 21.0584 40.0991C20.1548 39.7198 19.703 39.5302 19.2556 38.7081C18.8082 37.8861 18.9263 37.226 19.1623 35.906C19.4751 34.1569 19.8534 31.9839 20.0453 30.6666M21.329 15.4074L20.7539 15.5351C19.4106 15.8334 18.2024 16.6308 17.7158 17.9171C16.833 20.2506 16.1087 23.9786 16.005 29.332C15.9929 29.9553 15.9869 30.2669 16.183 30.4668C16.3792 30.6666 16.6949 30.6666 17.3265 30.6666H20.0453M21.329 15.4074C21.329 18.4874 21.0417 23.8274 20.0453 30.6666" stroke="#161C24" stroke-width="1.5" stroke-linecap="round" stroke-linejoin="round"/>
<path d="M30.708 16C30.512 20.6377 30.8256 30.3304 36 32M25.2923 16C25.4882 20.6377 25.174 30.3304 20 32" stroke="#161C24" stroke-width="1.5" stroke-linecap="round" stroke-linejoin="round"/>
</svg>
