<svg width="32" height="32" viewBox="0 0 32 32" fill="none" xmlns="http://www.w3.org/2000/svg">
<path d="M14.2066 2.66669L6.9941 2.66669C5.7991 2.66669 4.83036 3.56212 4.83036 4.66669C4.83036 5.5375 5.43247 6.27833 6.27286 6.55288C4.13005 10.5142 2.66663 13.8365 2.66663 18.3695L2.66663 24C2.66663 28.4125 3.66291 29.3334 8.4366 29.3334L13.904 29.3334C15.8681 29.3334 16.8502 29.3334 17.5436 28.8412C17.7878 28.6678 18.0011 28.4545 18.1744 28.2103C18.6666 27.517 18.6666 26.5349 18.6666 24.5707L18.6666 18.3695L18 13.8972C17.9533 13.708 17.9039 13.5201 17.8517 13.3334C17.2126 11.0445 16.1663 8.91926 14.8923 6.56416C15.7512 6.29908 16.3703 5.54972 16.3703 4.66669C16.3703 3.56212 15.4016 2.66669 14.2066 2.66669Z" fill="#DFE3E8"/>
<path d="M15.9999 23.1746C15.9999 26.8667 19.3194 29.3285 22.6666 29.3285C26.0138 29.3285 29.3333 26.8667 29.3333 23.1746C29.3333 19.4824 26.909 17.0209 25.0908 17.0209C23.8787 17.0209 22.6666 17.6363 22.6666 17.6363C22.6666 17.6363 21.4545 17.0209 20.2423 17.0209C18.4242 17.0209 15.9999 19.4824 15.9999 23.1746Z" fill="white"/>
<path d="M14.2066 6.66669C15.4016 6.66669 16.3703 5.77126 16.3703 4.66669C16.3703 3.56212 15.4016 2.66669 14.2066 2.66669L6.99414 2.66669C5.79914 2.66669 4.83041 3.56212 4.83041 4.66669C4.83041 5.77126 5.79914 6.66669 6.99414 6.66669M14.8923 6.56416C16.1663 8.91926 17.2127 11.0445 17.8518 13.3334C17.9039 13.5201 17.9534 13.708 18 13.8972M13.904 29.3334L8.43664 29.3334C3.66295 29.3334 2.66667 28.4125 2.66667 24L2.66667 18.3695C2.66667 13.8365 4.1301 10.5142 6.2729 6.55288" stroke="#161C24" stroke-width="1.5" stroke-linecap="round" stroke-linejoin="round"/>
<path d="M22.6666 17.6411C22.6666 17.6411 21.4545 17.0257 20.2423 17.0257C18.4242 17.0257 15.9999 19.4873 15.9999 23.1795C15.9999 26.8716 19.3194 29.3334 22.6666 29.3334C26.0138 29.3334 29.3333 26.8716 29.3333 23.1795C29.3333 19.4873 26.909 17.0257 25.0908 17.0258C23.8787 17.0257 22.6666 17.6411 22.6666 17.6411ZM22.6666 17.6411C22.6666 15.7949 23.8787 13.3334 26.3029 13.3334" stroke="#161C24" stroke-width="1.5" stroke-linecap="round" stroke-linejoin="round"/>
</svg>
