<svg width="56" height="56" viewBox="0 0 56 56" fill="none" xmlns="http://www.w3.org/2000/svg">
<rect width="56" height="56" rx="28" fill="#919EAB" fill-opacity="0.08"/>
<path d="M26.2066 14.6667L18.9941 14.6667C17.7991 14.6667 16.8304 15.5621 16.8304 16.6667C16.8304 17.5375 17.4325 18.2783 18.2729 18.5529C16.1301 22.5142 14.6666 25.8365 14.6666 30.3695L14.6666 36C14.6666 40.4125 15.6629 41.3334 20.4366 41.3334H25.904C27.8681 41.3334 28.8502 41.3334 29.5436 40.8412C29.7878 40.6678 30.0011 40.4545 30.1744 40.2103C30.6666 39.517 30.6666 38.5349 30.6666 36.5707L30.6666 30.3695L30 25.8972C29.9533 25.708 29.9039 25.5201 29.8517 25.3334C29.2126 23.0445 28.1663 20.9193 26.8923 18.5642C27.7512 18.2991 28.3703 17.5497 28.3703 16.6667C28.3703 15.5621 27.4016 14.6667 26.2066 14.6667Z" fill="#DFE3E8"/>
<path d="M27.9999 35.1746C27.9999 38.8667 31.3194 41.3285 34.6666 41.3285C38.0138 41.3285 41.3333 38.8667 41.3333 35.1746C41.3333 31.4824 38.909 29.0209 37.0908 29.0209C35.8787 29.0209 34.6666 29.6363 34.6666 29.6363C34.6666 29.6363 33.4545 29.0209 32.2423 29.0209C30.4242 29.0209 27.9999 31.4824 27.9999 35.1746Z" fill="white"/>
<path d="M26.2066 18.6667C27.4016 18.6667 28.3703 17.7713 28.3703 16.6667C28.3703 15.5621 27.4016 14.6667 26.2066 14.6667L18.9941 14.6667C17.7991 14.6667 16.8304 15.5621 16.8304 16.6667C16.8304 17.7713 17.7991 18.6667 18.9941 18.6667M26.8923 18.5642C28.1663 20.9193 29.2127 23.0445 29.8518 25.3334C29.9039 25.5201 29.9534 25.708 30 25.8972M25.904 41.3334H20.4366C15.6629 41.3334 14.6667 40.4125 14.6667 36L14.6667 30.3695C14.6667 25.8365 16.1301 22.5142 18.2729 18.5529" stroke="#161C24" stroke-width="1.5" stroke-linecap="round" stroke-linejoin="round"/>
<path d="M34.6666 29.6411C34.6666 29.6411 33.4545 29.0257 32.2423 29.0257C30.4242 29.0257 27.9999 31.4873 27.9999 35.1795C27.9999 38.8716 31.3194 41.3334 34.6666 41.3334C38.0138 41.3334 41.3333 38.8716 41.3333 35.1795C41.3333 31.4873 38.909 29.0257 37.0908 29.0258C35.8787 29.0257 34.6666 29.6411 34.6666 29.6411ZM34.6666 29.6411C34.6666 27.7949 35.8787 25.3334 38.3029 25.3334" stroke="#161C24" stroke-width="1.5" stroke-linecap="round" stroke-linejoin="round"/>
</svg>
