<svg width="56" height="56" viewBox="0 0 56 56" fill="none" xmlns="http://www.w3.org/2000/svg">
<rect width="56" height="56" rx="28" fill="#919EAB" fill-opacity="0.08"/>
<path d="M26.6667 16.6667V20V20.0508C26.1508 20 25.5011 20 24.6667 20C23.8324 20 23.1827 20 22.6667 20.0508V20V16.6667C22.6667 15.5621 23.5622 14.6667 24.6667 14.6667C25.7713 14.6667 26.6667 15.5621 26.6667 16.6667Z" fill="white"/>
<path d="M26.4105 24.0459C26.0178 24 25.5675 24 24.6667 24C23.766 24 23.3157 24 22.923 24.0459C22.1613 24.066 21.6097 24.1921 21.238 24.3336C21.0199 24.4167 20.6667 24.2334 20.6667 24C20.6667 22.1144 20.6667 21.1716 21.2525 20.5858C21.8383 20 22.7811 20 24.6667 20C26.5524 20 27.4952 20 28.081 20.5858C28.6667 21.1716 28.6667 22.1144 28.6667 24C28.6667 24.2334 28.3136 24.4167 28.0955 24.3336C27.7238 24.1921 27.1722 24.066 26.4105 24.0459Z" fill="white"/>
<path d="M32.8753 33.5491L32.4159 30.5891C32.2789 29.7068 32.2104 29.2656 32.1049 28.8879C31.3757 26.2771 29.1249 24.3633 26.4104 24.0459C26.0178 24 25.5674 24 24.6667 24C23.7659 24 23.3156 24 22.9229 24.0459C20.2084 24.3633 17.9577 26.2771 17.2284 28.8879C17.1229 29.2656 17.0544 29.7068 16.9175 30.5891L16.458 33.549C16.0042 36.4729 15.7772 37.9349 16.3047 39.0417C16.6143 39.6913 17.0947 40.2463 17.6955 40.6484C18.719 41.3333 20.2114 41.3333 23.1961 41.3333H26.1372C29.122 41.3333 30.6144 41.3333 31.6379 40.6484C32.2386 40.2463 32.7191 39.6913 33.0287 39.0417C33.5561 37.9349 33.3292 36.4729 32.8753 33.5491Z" fill="#DFE3E8"/>
<path d="M32.8753 33.5491L32.4159 30.5891C32.2789 29.7068 32.2104 29.2656 32.1049 28.8879C31.3757 26.2771 29.1249 24.3633 26.4104 24.0459C26.0178 24 25.5674 24 24.6667 24C23.7659 24 23.3156 24 22.9229 24.0459C20.2084 24.3633 17.9577 26.2771 17.2284 28.8879C17.1229 29.2656 17.0544 29.7068 16.9175 30.5891L16.458 33.549C16.0042 36.4729 15.7772 37.9349 16.3047 39.0417C16.6143 39.6913 17.0947 40.2463 17.6955 40.6484C18.719 41.3333 20.2114 41.3333 23.1961 41.3333H26.1372C29.122 41.3333 30.6144 41.3333 31.6379 40.6484C32.2386 40.2463 32.7191 39.6913 33.0287 39.0417C33.5561 37.9349 33.3292 36.4729 32.8753 33.5491Z" stroke="#161C24" stroke-width="1.5" stroke-linecap="round" stroke-linejoin="round"/>
<path d="M24.6667 30V35.3333M27.3333 32.6667L22 32.6667" stroke="#161C24" stroke-width="1.5" stroke-linecap="round"/>
<path d="M28.6667 24.6667V23C28.6667 21.5858 28.6667 20.8787 28.2274 20.4393C27.7881 20 27.081 20 25.6667 20L23.6667 20C22.2525 20 21.5454 20 21.1061 20.4393C20.6667 20.8787 20.6667 21.5858 20.6667 23V24.6667" stroke="#161C24" stroke-width="1.5" stroke-linecap="round" stroke-linejoin="round"/>
<path d="M26.6667 20V16.6667C26.6667 15.5621 25.7713 14.6667 24.6667 14.6667V14.6667C23.5622 14.6667 22.6667 15.5621 22.6667 16.6667L22.6667 20" stroke="#161C24" stroke-width="1.5" stroke-linecap="round" stroke-linejoin="round"/>
<path d="M26.6667 17.6251L30.2899 16.6603C32.3057 16.1235 33.3137 15.8551 34.2482 16.0796C35.1827 16.3041 35.7776 16.9576 36.9674 18.2646L37.3334 18.6667" stroke="#161C24" stroke-width="1.5" stroke-linecap="round" stroke-linejoin="round"/>
<path d="M40 26C40 27.4728 39 28 38 28C37 28 36 27.4728 36 26C36 24.5273 38 22.6667 38 22.6667C38 22.6667 40 24.5273 40 26Z" fill="white"/>
<path d="M40 26C40 27.4728 39 28 38 28C37 28 36 27.4728 36 26C36 24.5273 38 22.6667 38 22.6667C38 22.6667 40 24.5273 40 26Z" stroke="#161C24" stroke-width="1.5" stroke-linejoin="round"/>
</svg>
