<svg width="56" height="56" viewBox="0 0 56 56" fill="none" xmlns="http://www.w3.org/2000/svg">
<rect width="56" height="56" rx="28" fill="#919EAB" fill-opacity="0.08"/>
<path d="M28.6705 17.4512L32.1703 15.3832C34.6666 13.9082 37.8586 14.7835 39.2999 17.3384C40.4577 19.3909 40.1334 21.903 38.6666 23.5763L30.6259 27.9348L27.3333 22.6667C26.2607 20.8575 26.8597 18.5212 28.6705 17.4512Z" fill="white"/>
<path d="M18.6105 23.3916L22.1103 21.3236C23.9226 20.2527 26.2598 20.852 27.3333 22.6627L30.6259 27.9309L20.6667 33.3294C19.0661 33.1534 17.5666 32.2244 16.7001 30.6883C15.2589 28.1335 16.1142 24.8667 18.6105 23.3916Z" fill="#D4D7E0"/>
<path d="M25.3904 19.3894L32.1703 15.3832C34.6666 13.9082 37.8586 14.7835 39.2999 17.3384C40.4578 19.3909 40.1334 21.903 38.6667 23.5763M25.3904 19.3894L18.6105 23.3956C16.1142 24.8706 15.2589 28.1375 16.7001 30.6923C17.5666 32.2284 19.0661 33.1573 20.6667 33.3334M25.3904 19.3894L27.3333 22.6667" stroke="#141B34" stroke-width="1.5" stroke-linecap="round" stroke-linejoin="round"/>
<path d="M38.9244 29.3347C41.1336 33.1611 39.8225 38.0538 35.9962 40.2629C32.1699 42.4721 27.2771 41.161 25.068 37.3347C22.8589 33.5084 24.1699 28.6156 27.9962 26.4065C31.8225 24.1974 36.7153 25.5084 38.9244 29.3347Z" fill="white"/>
<path d="M27.9962 26.4065C24.1699 28.6156 22.8589 33.5084 25.068 37.3347L38.9244 29.3347C36.7153 25.5084 31.8225 24.1974 27.9962 26.4065Z" fill="#D4D7E0"/>
<path d="M38.9244 29.3347C41.1335 33.1611 39.8225 38.0538 35.9962 40.2629C32.1699 42.4721 27.2771 41.161 25.068 37.3347M38.9244 29.3347C36.7153 25.5084 31.8225 24.1974 27.9962 26.4065C24.1699 28.6156 22.8589 33.5084 25.068 37.3347M38.9244 29.3347L25.068 37.3347" stroke="#141B34" stroke-width="1.5"/>
</svg>
