<svg width="32" height="32" viewBox="0 0 32 32" fill="none" xmlns="http://www.w3.org/2000/svg">
<path d="M16.6705 5.45122L20.1703 3.38321C22.6666 1.90818 25.8586 2.78353 27.2999 5.33837C28.4577 7.39088 28.1334 9.90296 26.6666 11.5763L18.6259 15.9348L15.3333 10.6667C14.2607 8.85746 14.8597 6.52119 16.6705 5.45122Z" fill="white"/>
<path d="M6.61047 11.3916L10.1103 9.32361C11.9226 8.25273 14.2598 8.85196 15.3333 10.6627L18.6259 15.9309L8.66667 21.3294C7.06608 21.1534 5.56665 20.2244 4.70011 18.6883C3.25887 16.1335 4.11417 12.8667 6.61047 11.3916Z" fill="#D4D7E0"/>
<path d="M13.3904 7.3894L20.1703 3.38321C22.6666 1.90818 25.8586 2.78353 27.2999 5.33837C28.4578 7.39088 28.1334 9.90296 26.6667 11.5763M13.3904 7.3894L6.61047 11.3956C4.11417 12.8706 3.25887 16.1375 4.70011 18.6923C5.56665 20.2284 7.06608 21.1573 8.66667 21.3334M13.3904 7.3894L15.3333 10.6667" stroke="#141B34" stroke-width="1.5" stroke-linecap="round" stroke-linejoin="round"/>
<path d="M26.9244 17.3347C29.1336 21.1611 27.8225 26.0538 23.9962 28.2629C20.1699 30.4721 15.2771 29.161 13.068 25.3347C10.8589 21.5084 12.1699 16.6156 15.9962 14.4065C19.8225 12.1974 24.7153 13.5084 26.9244 17.3347Z" fill="white"/>
<path d="M15.9962 14.4065C12.1699 16.6156 10.8589 21.5084 13.068 25.3347L26.9244 17.3347C24.7153 13.5084 19.8225 12.1974 15.9962 14.4065Z" fill="#D4D7E0"/>
<path d="M26.9244 17.3347C29.1335 21.1611 27.8225 26.0538 23.9962 28.2629C20.1699 30.4721 15.2771 29.161 13.068 25.3347M26.9244 17.3347C24.7153 13.5084 19.8225 12.1974 15.9962 14.4065C12.1699 16.6156 10.8589 21.5084 13.068 25.3347M26.9244 17.3347L13.068 25.3347" stroke="#141B34" stroke-width="1.5"/>
</svg>
